<svg id="svg" xmlns="http://www.w3.org/2000/svg" xmlns:xlink="http://www.w3.org/1999/xlink" width="400" height="141.34969325153375" viewBox="0, 0, 400,141.34969325153375"><g id="svgg"><path id="path0" d="M229.560 15.750 C 229.490 15.933,229.201 16.000,228.482 16.000 C 227.720 16.000,227.500 16.056,227.500 16.250 C 227.500 16.449,227.259 16.500,226.328 16.500 C 225.440 16.500,225.133 16.561,225.060 16.750 C 224.991 16.929,224.711 17.000,224.066 17.000 C 223.378 17.000,223.167 17.059,223.167 17.250 C 223.167 17.444,222.944 17.500,222.167 17.500 C 221.389 17.500,221.167 17.556,221.167 17.750 C 221.167 17.944,220.944 18.000,220.167 18.000 C 219.389 18.000,219.167 18.056,219.167 18.250 C 219.167 18.450,218.917 18.500,217.917 18.500 C 216.917 18.500,216.667 18.550,216.667 18.750 C 216.667 18.942,216.454 19.000,215.750 19.000 C 215.246 19.000,214.833 19.075,214.833 19.167 C 214.833 19.258,214.418 19.333,213.911 19.333 C 213.246 19.333,212.963 19.403,212.894 19.583 C 212.823 19.766,212.535 19.833,211.816 19.833 C 211.054 19.833,210.833 19.889,210.833 20.083 C 210.833 20.282,210.594 20.333,209.675 20.333 C 208.840 20.333,208.479 20.400,208.382 20.574 C 208.300 20.721,207.933 20.830,207.437 20.856 C 206.991 20.879,206.528 20.996,206.408 21.116 C 206.286 21.238,205.819 21.333,205.345 21.333 C 204.705 21.333,204.500 21.394,204.500 21.583 C 204.500 21.782,204.259 21.833,203.328 21.833 C 202.440 21.833,202.133 21.894,202.060 22.083 C 201.994 22.257,201.722 22.333,201.169 22.333 C 200.666 22.333,200.298 22.425,200.167 22.583 C 200.029 22.749,199.656 22.833,199.058 22.833 C 198.410 22.833,198.129 22.904,198.060 23.083 C 197.991 23.263,197.711 23.333,197.066 23.333 C 196.378 23.333,196.167 23.392,196.167 23.583 C 196.167 23.783,195.917 23.833,194.917 23.833 C 193.917 23.833,193.667 23.883,193.667 24.083 C 193.667 24.278,193.444 24.333,192.667 24.333 C 191.889 24.333,191.667 24.389,191.667 24.583 C 191.667 24.775,191.453 24.833,190.745 24.833 C 190.079 24.833,189.796 24.903,189.727 25.083 C 189.655 25.272,189.350 25.333,188.482 25.333 C 187.572 25.333,187.333 25.385,187.333 25.583 C 187.333 25.775,187.120 25.833,186.411 25.833 C 185.746 25.833,185.463 25.903,185.394 26.083 C 185.323 26.266,185.035 26.333,184.316 26.333 C 183.554 26.333,183.333 26.389,183.333 26.583 C 183.333 26.778,183.111 26.833,182.333 26.833 C 181.556 26.833,181.333 26.889,181.333 27.083 C 181.333 27.282,181.093 27.333,180.167 27.333 C 179.241 27.333,179.000 27.385,179.000 27.583 C 179.000 27.778,178.778 27.833,178.000 27.833 C 177.444 27.833,177.000 27.907,177.000 28.000 C 177.000 28.093,176.556 28.167,176.000 28.167 C 175.222 28.167,175.000 28.222,175.000 28.417 C 175.000 28.615,174.760 28.667,173.842 28.667 C 173.046 28.667,172.641 28.737,172.550 28.892 C 172.477 29.015,172.010 29.163,171.513 29.221 C 171.015 29.278,170.564 29.397,170.509 29.486 C 170.454 29.575,170.047 29.666,169.604 29.689 C 169.127 29.714,168.764 29.820,168.715 29.949 C 168.657 30.099,168.274 30.167,167.477 30.167 C 166.605 30.167,166.299 30.228,166.227 30.417 C 166.158 30.595,165.879 30.667,165.250 30.667 C 164.621 30.667,164.342 30.738,164.273 30.917 C 164.204 31.097,163.920 31.167,163.250 31.167 C 162.580 31.167,162.296 31.236,162.227 31.417 C 162.155 31.605,161.850 31.667,160.982 31.667 C 160.072 31.667,159.833 31.719,159.833 31.917 C 159.833 32.082,159.668 32.167,159.346 32.167 C 159.022 32.167,158.840 32.261,158.804 32.445 C 158.768 32.632,158.449 32.791,157.833 32.929 C 157.329 33.043,156.429 33.256,155.833 33.404 C 155.237 33.552,154.000 33.824,153.083 34.009 C 152.167 34.195,151.042 34.448,150.583 34.573 C 149.106 34.975,148.266 35.184,147.500 35.341 C 147.087 35.426,146.262 35.614,145.667 35.760 C 145.071 35.906,144.208 36.101,143.750 36.192 C 143.292 36.284,142.579 36.466,142.167 36.597 C 141.754 36.728,141.244 36.835,141.033 36.834 C 140.823 36.834,140.448 36.935,140.200 37.060 C 139.953 37.185,139.311 37.337,138.774 37.397 C 137.956 37.489,137.308 37.686,137.023 37.930 C 136.958 37.986,138.319 39.650,139.759 41.274 C 140.259 41.837,140.911 42.612,141.209 42.995 C 141.506 43.378,141.984 43.942,142.270 44.247 C 142.556 44.552,143.254 45.352,143.822 46.026 C 144.389 46.699,145.080 47.512,145.355 47.833 C 145.631 48.154,146.304 48.942,146.851 49.583 C 147.397 50.225,148.013 50.938,148.218 51.167 C 148.423 51.396,149.064 52.146,149.642 52.833 C 150.220 53.521,150.912 54.339,151.180 54.651 L 151.667 55.219 151.667 58.766 C 151.667 60.989,151.730 62.353,151.836 62.418 C 151.929 62.476,151.950 62.612,151.882 62.720 C 151.723 62.973,151.701 64.009,151.848 64.333 C 151.910 64.471,152.013 67.469,152.077 70.997 C 152.205 78.065,152.204 78.061,152.954 77.429 C 153.235 77.193,153.518 77.000,153.583 77.000 C 153.648 77.000,154.217 76.569,154.848 76.042 C 155.478 75.515,156.604 74.596,157.349 74.000 C 158.094 73.404,158.829 72.804,158.981 72.667 C 159.134 72.529,159.688 72.123,160.212 71.764 C 160.737 71.405,161.167 71.054,161.167 70.984 C 161.167 70.913,161.303 70.812,161.470 70.759 C 161.637 70.706,161.993 70.450,162.262 70.190 C 162.758 69.710,163.357 69.333,163.627 69.333 C 163.709 69.333,164.274 69.915,164.883 70.625 C 166.487 72.497,167.196 73.309,168.063 74.267 C 168.487 74.735,168.833 75.169,168.833 75.231 C 168.833 75.294,169.041 75.548,169.295 75.797 C 170.091 76.578,171.000 77.867,171.000 78.215 C 171.000 78.399,171.262 78.805,171.583 79.116 C 171.904 79.428,172.167 79.792,172.167 79.925 C 172.167 80.058,172.242 80.167,172.333 80.167 C 172.425 80.167,172.500 80.279,172.500 80.417 C 172.500 80.554,172.612 80.667,172.750 80.667 C 172.887 80.667,173.000 80.779,173.000 80.917 C 173.000 81.054,173.112 81.167,173.250 81.167 C 173.387 81.167,173.500 81.279,173.500 81.417 C 173.500 81.554,173.612 81.667,173.750 81.667 C 173.887 81.667,174.000 81.779,174.000 81.917 C 174.000 82.054,174.112 82.167,174.250 82.167 C 174.387 82.167,174.500 82.279,174.500 82.417 C 174.500 82.554,174.612 82.667,174.750 82.667 C 174.887 82.667,175.000 82.779,175.000 82.917 C 175.000 83.054,175.112 83.167,175.250 83.167 C 175.417 83.167,175.500 83.333,175.500 83.667 C 175.500 84.000,175.583 84.167,175.750 84.167 C 175.887 84.167,176.000 84.279,176.000 84.417 C 176.000 84.554,176.075 84.667,176.167 84.667 C 176.383 84.667,177.000 85.284,177.000 85.500 C 177.000 85.592,177.112 85.667,177.250 85.667 C 177.387 85.667,177.500 85.779,177.500 85.917 C 177.500 86.054,177.608 86.167,177.739 86.167 C 177.876 86.167,178.000 86.363,178.031 86.625 C 178.060 86.883,178.174 87.065,178.292 87.042 C 178.406 87.019,178.500 87.113,178.500 87.250 C 178.500 87.388,178.612 87.500,178.750 87.500 C 178.889 87.500,179.000 87.648,179.000 87.833 C 179.000 88.017,179.078 88.167,179.172 88.167 C 179.388 88.167,180.333 89.121,180.333 89.339 C 180.333 89.428,180.446 89.500,180.583 89.500 C 180.721 89.500,180.833 89.612,180.833 89.750 C 180.833 89.888,180.946 90.000,181.083 90.000 C 181.250 90.000,181.333 90.167,181.333 90.500 C 181.333 90.775,181.406 91.000,181.494 91.000 C 181.704 91.000,182.833 92.129,182.833 92.339 C 182.833 92.428,182.946 92.500,183.083 92.500 C 183.221 92.500,183.333 92.612,183.333 92.750 C 183.333 92.917,183.500 93.000,183.833 93.000 C 184.167 93.000,184.333 92.917,184.333 92.750 C 184.333 92.612,184.446 92.500,184.583 92.500 C 184.721 92.500,184.833 92.396,184.833 92.268 C 184.833 92.140,184.946 91.992,185.083 91.940 C 185.221 91.887,185.333 91.654,185.333 91.422 C 185.333 91.158,185.427 91.000,185.583 91.000 C 185.721 91.000,185.833 90.896,185.833 90.768 C 185.833 90.640,185.946 90.492,186.083 90.440 C 186.221 90.387,186.333 90.154,186.333 89.922 C 186.333 89.690,186.408 89.500,186.500 89.500 C 186.592 89.500,186.667 89.275,186.667 89.000 C 186.667 88.667,186.750 88.500,186.917 88.500 C 187.054 88.500,187.167 88.388,187.167 88.250 C 187.167 88.112,187.279 88.000,187.417 88.000 C 187.569 88.000,187.667 87.845,187.667 87.601 C 187.667 87.382,187.779 87.159,187.917 87.106 C 188.054 87.054,188.167 86.821,188.167 86.589 C 188.167 86.325,188.260 86.167,188.417 86.167 C 188.554 86.167,188.667 86.054,188.667 85.917 C 188.667 85.779,188.779 85.667,188.917 85.667 C 189.083 85.667,189.167 85.500,189.167 85.167 C 189.167 84.833,189.250 84.667,189.417 84.667 C 189.554 84.667,189.667 84.554,189.667 84.417 C 189.667 84.279,189.779 84.167,189.917 84.167 C 190.083 84.167,190.167 84.000,190.167 83.667 C 190.167 83.333,190.250 83.167,190.417 83.167 C 190.583 83.167,190.667 83.000,190.667 82.667 C 190.667 82.333,190.750 82.167,190.917 82.167 C 191.054 82.167,191.167 82.054,191.167 81.917 C 191.167 81.779,191.279 81.667,191.417 81.667 C 191.583 81.667,191.667 81.500,191.667 81.167 C 191.667 80.833,191.750 80.667,191.917 80.667 C 192.054 80.667,192.167 80.554,192.167 80.417 C 192.167 80.279,192.279 80.167,192.417 80.167 C 192.569 80.167,192.667 80.011,192.667 79.768 C 192.667 79.548,192.779 79.326,192.917 79.273 C 193.054 79.220,193.167 78.987,193.167 78.755 C 193.167 78.491,193.260 78.333,193.417 78.333 C 193.554 78.333,193.667 78.229,193.667 78.101 C 193.667 77.973,193.779 77.826,193.917 77.773 C 194.054 77.720,194.167 77.519,194.167 77.327 C 194.167 77.134,194.279 76.864,194.417 76.726 C 194.554 76.589,194.667 76.332,194.667 76.155 C 194.667 75.978,194.779 75.833,194.917 75.833 C 195.054 75.833,195.167 75.721,195.167 75.583 C 195.167 75.446,195.242 75.333,195.333 75.333 C 195.425 75.333,195.500 75.108,195.500 74.833 C 195.500 74.500,195.583 74.333,195.750 74.333 C 195.887 74.333,196.000 74.221,196.000 74.083 C 196.000 73.946,196.112 73.833,196.250 73.833 C 196.417 73.833,196.500 73.667,196.500 73.333 C 196.500 73.000,196.583 72.833,196.750 72.833 C 196.917 72.833,197.000 72.667,197.000 72.333 C 197.000 72.000,197.083 71.833,197.250 71.833 C 197.387 71.833,197.500 71.721,197.500 71.583 C 197.500 71.446,197.612 71.333,197.750 71.333 C 197.906 71.333,198.000 71.176,198.000 70.917 C 198.000 70.667,198.095 70.500,198.238 70.500 C 198.369 70.500,198.510 70.369,198.552 70.208 C 198.594 70.048,198.637 70.235,198.647 70.625 C 198.658 71.015,198.742 71.333,198.833 71.333 C 198.929 71.333,199.000 71.835,199.000 72.505 C 199.000 73.393,199.061 73.700,199.250 73.773 C 199.420 73.838,199.500 74.104,199.500 74.601 C 199.500 75.141,199.566 75.333,199.750 75.333 C 199.923 75.333,200.000 75.507,200.000 75.896 C 200.000 76.206,200.112 76.553,200.250 76.667 C 200.387 76.781,200.500 77.044,200.500 77.253 C 200.500 77.461,200.612 77.674,200.750 77.727 C 200.887 77.780,201.000 77.938,201.000 78.078 C 201.000 78.218,201.112 78.333,201.250 78.333 C 201.399 78.333,201.500 78.487,201.500 78.713 C 201.500 79.085,202.009 79.667,202.335 79.667 C 202.426 79.667,202.500 79.779,202.500 79.917 C 202.500 80.054,202.612 80.167,202.750 80.167 C 202.887 80.167,203.000 80.279,203.000 80.417 C 203.000 80.554,203.112 80.667,203.250 80.667 C 203.387 80.667,203.500 80.779,203.500 80.917 C 203.500 81.083,203.667 81.167,204.000 81.167 C 204.333 81.167,204.500 81.250,204.500 81.417 C 204.500 81.554,204.612 81.667,204.750 81.667 C 204.887 81.667,205.000 81.779,205.000 81.917 C 205.000 82.083,205.167 82.167,205.500 82.167 C 205.833 82.167,206.000 82.250,206.000 82.417 C 206.000 82.596,206.183 82.667,206.649 82.667 C 207.072 82.667,207.331 82.754,207.394 82.917 C 207.475 83.128,208.042 83.167,211.078 83.167 C 214.157 83.167,214.667 83.131,214.667 82.917 C 214.667 82.750,214.833 82.667,215.167 82.667 C 215.500 82.667,215.667 82.583,215.667 82.417 C 215.667 82.260,215.825 82.167,216.089 82.167 C 216.321 82.167,216.554 82.054,216.606 81.917 C 216.659 81.779,216.807 81.667,216.934 81.667 C 217.062 81.667,217.167 81.554,217.167 81.417 C 217.167 81.279,217.279 81.167,217.417 81.167 C 217.554 81.167,217.667 81.054,217.667 80.917 C 217.667 80.779,217.779 80.667,217.917 80.667 C 218.083 80.667,218.167 80.500,218.167 80.167 C 218.167 79.833,218.250 79.667,218.417 79.667 C 218.572 79.667,218.667 79.509,218.667 79.250 C 218.667 78.991,218.761 78.833,218.917 78.833 C 219.124 78.833,219.167 79.157,219.167 80.750 L 219.167 82.667 222.585 82.667 L 226.003 82.667 225.960 73.125 L 225.917 63.583 217.875 63.540 L 209.833 63.497 209.833 66.998 L 209.833 70.500 214.000 70.500 L 218.167 70.500 218.167 71.672 C 218.167 72.560,218.106 72.867,217.917 72.940 C 217.779 72.992,217.667 73.215,217.667 73.434 C 217.667 73.678,217.569 73.833,217.417 73.833 C 217.279 73.833,217.167 73.946,217.167 74.083 C 217.167 74.221,217.054 74.333,216.917 74.333 C 216.779 74.333,216.667 74.407,216.667 74.498 C 216.667 74.826,216.084 75.333,215.708 75.333 C 215.496 75.333,215.280 75.446,215.227 75.583 C 215.158 75.763,214.877 75.833,214.232 75.833 C 213.544 75.833,213.333 75.892,213.333 76.083 C 213.333 76.268,213.141 76.333,212.601 76.333 C 212.104 76.333,211.838 76.253,211.773 76.083 C 211.704 75.903,211.421 75.833,210.755 75.833 C 210.047 75.833,209.833 75.775,209.833 75.583 C 209.833 75.417,209.667 75.333,209.333 75.333 C 209.000 75.333,208.833 75.250,208.833 75.083 C 208.833 74.946,208.721 74.833,208.583 74.833 C 208.446 74.833,208.333 74.721,208.333 74.583 C 208.333 74.446,208.221 74.333,208.083 74.333 C 207.927 74.333,207.833 74.175,207.833 73.911 C 207.833 73.679,207.721 73.446,207.583 73.394 C 207.446 73.341,207.333 73.193,207.333 73.066 C 207.333 72.938,207.221 72.833,207.083 72.833 C 206.891 72.833,206.833 72.620,206.833 71.917 C 206.833 71.213,206.775 71.000,206.583 71.000 C 206.365 71.000,206.333 70.148,206.333 64.333 C 206.333 58.519,206.365 57.667,206.583 57.667 C 206.769 57.667,206.833 57.472,206.833 56.917 C 206.833 56.361,206.898 56.167,207.083 56.167 C 207.221 56.167,207.333 56.062,207.333 55.934 C 207.333 55.807,207.446 55.659,207.583 55.606 C 207.721 55.554,207.833 55.321,207.833 55.089 C 207.833 54.825,207.927 54.667,208.083 54.667 C 208.250 54.667,208.333 54.500,208.333 54.167 C 208.333 53.722,208.389 53.667,208.833 53.667 C 209.167 53.667,209.333 53.583,209.333 53.417 C 209.333 53.279,209.440 53.167,209.569 53.167 C 209.699 53.167,209.831 53.094,209.861 53.005 C 209.892 52.916,210.422 52.822,211.040 52.797 C 211.747 52.767,212.193 52.673,212.243 52.542 C 212.344 52.277,212.784 52.270,212.871 52.531 C 212.910 52.647,213.380 52.753,214.010 52.788 C 214.600 52.820,215.108 52.919,215.139 53.007 C 215.169 53.095,215.376 53.167,215.597 53.167 C 216.000 53.167,216.667 53.686,216.667 54.000 C 216.667 54.092,216.779 54.167,216.917 54.167 C 217.054 54.167,217.167 54.279,217.167 54.417 C 217.167 54.554,217.279 54.667,217.417 54.667 C 217.573 54.667,217.667 54.825,217.667 55.089 C 217.667 55.321,217.779 55.554,217.917 55.606 C 218.109 55.680,218.167 56.000,218.167 56.997 C 218.167 57.945,218.234 58.348,218.417 58.500 C 218.554 58.614,218.667 58.923,218.667 59.187 L 218.667 59.667 222.333 59.667 L 226.000 59.667 226.000 57.495 C 226.000 55.718,225.955 55.305,225.750 55.227 C 225.571 55.158,225.500 54.877,225.500 54.232 C 225.500 53.544,225.441 53.333,225.250 53.333 C 225.083 53.333,225.000 53.167,225.000 52.833 C 225.000 52.500,224.917 52.333,224.750 52.333 C 224.583 52.333,224.500 52.167,224.500 51.833 C 224.500 51.500,224.417 51.333,224.250 51.333 C 224.083 51.333,224.000 51.167,224.000 50.833 C 224.000 50.500,223.917 50.333,223.750 50.333 C 223.612 50.333,223.500 50.221,223.500 50.083 C 223.500 49.946,223.387 49.833,223.250 49.833 C 223.112 49.833,223.000 49.721,223.000 49.583 C 223.000 49.446,222.887 49.333,222.750 49.333 C 222.612 49.333,222.500 49.221,222.500 49.083 C 222.500 48.946,222.425 48.833,222.333 48.833 C 222.242 48.833,222.167 48.721,222.167 48.583 C 222.167 48.446,222.073 48.330,221.958 48.326 C 221.844 48.322,221.566 48.097,221.341 47.826 C 221.116 47.555,220.768 47.333,220.567 47.333 C 220.367 47.333,220.159 47.221,220.106 47.083 C 220.054 46.946,219.853 46.833,219.660 46.833 C 219.467 46.833,219.197 46.721,219.060 46.583 C 218.922 46.446,218.673 46.333,218.506 46.333 C 218.339 46.333,218.159 46.221,218.106 46.083 C 218.043 45.918,217.782 45.833,217.339 45.833 C 216.969 45.833,216.667 45.758,216.667 45.667 C 216.667 45.569,216.029 45.492,215.125 45.481 C 214.277 45.470,213.715 45.427,213.875 45.385 C 214.069 45.334,214.167 45.146,214.167 44.821 C 214.167 44.499,214.251 44.333,214.417 44.333 C 214.563 44.333,214.670 44.177,214.674 43.958 C 214.678 43.752,214.903 43.399,215.174 43.174 C 215.445 42.949,215.667 42.602,215.667 42.401 C 215.667 42.200,215.779 41.992,215.917 41.940 C 216.054 41.887,216.167 41.654,216.167 41.422 C 216.167 41.158,216.260 41.000,216.417 41.000 C 216.554 41.000,216.667 40.887,216.667 40.750 C 216.667 40.612,216.779 40.500,216.917 40.500 C 217.083 40.500,217.167 40.333,217.167 40.000 C 217.167 39.667,217.250 39.500,217.417 39.500 C 217.554 39.500,217.667 39.387,217.667 39.250 C 217.667 39.112,217.779 39.000,217.917 39.000 C 218.083 39.000,218.167 38.833,218.167 38.500 C 218.167 38.167,218.250 38.000,218.417 38.000 C 218.583 38.000,218.667 37.833,218.667 37.500 C 218.667 37.167,218.750 37.000,218.917 37.000 C 219.054 37.000,219.167 36.887,219.167 36.750 C 219.167 36.612,219.279 36.500,219.417 36.500 C 219.583 36.500,219.667 36.333,219.667 36.000 C 219.667 35.725,219.752 35.500,219.855 35.500 C 220.129 35.500,220.667 34.832,220.667 34.492 C 220.667 34.333,220.779 34.159,220.917 34.106 C 221.054 34.054,221.167 33.821,221.167 33.589 C 221.167 33.325,221.260 33.167,221.417 33.167 C 221.554 33.167,221.667 33.062,221.667 32.934 C 221.667 32.807,221.779 32.659,221.917 32.606 C 222.054 32.554,222.167 32.321,222.167 32.089 C 222.167 31.857,222.242 31.667,222.333 31.667 C 222.425 31.667,222.500 31.442,222.500 31.167 C 222.500 30.833,222.583 30.667,222.750 30.667 C 222.887 30.667,223.000 30.554,223.000 30.417 C 223.000 30.279,223.112 30.167,223.250 30.167 C 223.417 30.167,223.500 30.000,223.500 29.667 C 223.500 29.333,223.583 29.167,223.750 29.167 C 223.887 29.167,224.000 29.054,224.000 28.917 C 224.000 28.779,224.112 28.667,224.250 28.667 C 224.417 28.667,224.500 28.500,224.500 28.167 C 224.500 27.833,224.583 27.667,224.750 27.667 C 224.917 27.667,225.000 27.500,225.000 27.167 C 225.000 26.892,225.074 26.667,225.165 26.667 C 225.491 26.667,226.000 26.085,226.000 25.713 C 226.000 25.487,226.101 25.333,226.250 25.333 C 226.387 25.333,226.500 25.218,226.500 25.078 C 226.500 24.938,226.612 24.780,226.750 24.727 C 226.887 24.674,227.000 24.449,227.000 24.227 C 227.000 24.005,227.112 23.780,227.250 23.727 C 227.387 23.674,227.500 23.452,227.500 23.232 C 227.500 22.989,227.597 22.833,227.750 22.833 C 227.887 22.833,228.000 22.753,228.000 22.655 C 228.000 22.557,228.112 22.364,228.250 22.226 C 228.387 22.089,228.500 21.840,228.500 21.673 C 228.500 21.506,228.612 21.326,228.750 21.273 C 228.887 21.220,229.000 20.987,229.000 20.755 C 229.000 20.491,229.094 20.333,229.250 20.333 C 229.387 20.333,229.500 20.229,229.500 20.101 C 229.500 19.973,229.612 19.826,229.750 19.773 C 229.887 19.720,230.000 19.521,230.000 19.331 C 230.000 19.140,230.177 18.819,230.394 18.617 C 230.610 18.415,230.840 18.081,230.905 17.875 C 230.969 17.669,231.092 17.500,231.178 17.500 C 231.263 17.500,231.333 17.283,231.333 17.018 C 231.333 16.743,231.441 16.494,231.583 16.440 C 231.721 16.387,231.833 16.154,231.833 15.922 C 231.833 15.407,229.752 15.250,229.560 15.750 M293.833 44.250 C 293.833 44.417,293.667 44.500,293.333 44.500 C 293.000 44.500,292.833 44.583,292.833 44.750 C 292.833 44.887,292.721 45.000,292.583 45.000 C 292.446 45.000,292.333 45.112,292.333 45.250 C 292.333 45.387,292.259 45.500,292.169 45.500 C 291.748 45.500,291.333 46.098,291.333 46.704 C 291.333 47.152,291.261 47.333,291.083 47.333 C 290.877 47.333,290.833 47.639,290.833 49.083 C 290.833 50.528,290.877 50.833,291.083 50.833 C 291.250 50.833,291.333 51.000,291.333 51.333 C 291.333 51.667,291.417 51.833,291.583 51.833 C 291.732 51.833,291.833 51.987,291.833 52.213 C 291.833 52.585,292.343 53.167,292.669 53.167 C 292.759 53.167,292.833 53.279,292.833 53.417 C 292.833 53.583,293.000 53.667,293.333 53.667 C 293.667 53.667,293.833 53.750,293.833 53.917 C 293.833 54.126,294.185 54.167,296.000 54.167 C 297.815 54.167,298.167 54.126,298.167 53.917 C 298.167 53.750,298.333 53.667,298.667 53.667 C 299.000 53.667,299.167 53.583,299.167 53.417 C 299.167 53.279,299.279 53.167,299.417 53.167 C 299.554 53.167,299.667 53.092,299.667 53.000 C 299.667 52.908,299.779 52.833,299.917 52.833 C 300.054 52.833,300.170 52.740,300.174 52.625 C 300.178 52.510,300.403 52.233,300.674 52.008 C 301.057 51.690,301.167 51.462,301.167 50.984 C 301.167 50.646,301.260 50.333,301.375 50.289 C 301.649 50.184,301.634 47.961,301.359 47.870 C 301.253 47.834,301.167 47.555,301.167 47.248 C 301.167 46.683,300.279 45.500,299.855 45.500 C 299.752 45.500,299.667 45.387,299.667 45.250 C 299.667 45.112,299.554 45.000,299.417 45.000 C 299.279 45.000,299.167 44.887,299.167 44.750 C 299.167 44.583,299.000 44.500,298.667 44.500 C 298.333 44.500,298.167 44.417,298.167 44.250 C 298.167 44.041,297.815 44.000,296.000 44.000 C 294.185 44.000,293.833 44.041,293.833 44.250 M342.833 52.759 C 342.833 58.788,342.802 59.667,342.583 59.667 C 342.417 59.667,342.333 59.500,342.333 59.167 C 342.333 58.833,342.250 58.667,342.083 58.667 C 341.946 58.667,341.833 58.554,341.833 58.417 C 341.833 58.279,341.761 58.167,341.672 58.167 C 341.463 58.167,340.333 57.037,340.333 56.828 C 340.333 56.739,340.116 56.667,339.851 56.667 C 339.576 56.667,339.328 56.559,339.273 56.417 C 339.220 56.279,338.994 56.167,338.769 56.167 C 338.545 56.167,338.330 56.073,338.292 55.958 C 338.177 55.611,331.697 55.562,331.564 55.907 C 331.497 56.081,331.249 56.167,330.816 56.167 C 330.350 56.167,330.167 56.237,330.167 56.417 C 330.167 56.583,330.000 56.667,329.667 56.667 C 329.333 56.667,329.167 56.750,329.167 56.917 C 329.167 57.073,329.009 57.167,328.745 57.167 C 328.513 57.167,328.280 57.279,328.227 57.417 C 328.174 57.554,328.027 57.667,327.899 57.667 C 327.771 57.667,327.667 57.779,327.667 57.917 C 327.667 58.083,327.500 58.167,327.167 58.167 C 326.833 58.167,326.667 58.250,326.667 58.417 C 326.667 58.554,326.554 58.667,326.417 58.667 C 326.250 58.667,326.167 58.833,326.167 59.167 C 326.167 59.500,326.083 59.667,325.917 59.667 C 325.779 59.667,325.667 59.779,325.667 59.917 C 325.667 60.054,325.554 60.167,325.417 60.167 C 325.279 60.167,325.167 60.279,325.167 60.417 C 325.167 60.554,325.054 60.667,324.917 60.667 C 324.750 60.667,324.667 60.833,324.667 61.167 C 324.667 61.500,324.583 61.667,324.417 61.667 C 324.250 61.667,324.167 61.833,324.167 62.167 C 324.167 62.500,324.083 62.667,323.917 62.667 C 323.741 62.667,323.667 62.844,323.667 63.262 C 323.667 63.589,323.567 63.957,323.445 64.079 C 323.316 64.207,323.206 64.748,323.184 65.358 C 323.159 66.052,323.067 66.459,322.916 66.544 C 322.602 66.719,322.647 72.188,322.963 72.293 C 323.099 72.339,323.167 72.771,323.167 73.597 C 323.167 74.585,323.217 74.833,323.417 74.833 C 323.602 74.833,323.667 75.028,323.667 75.583 C 323.667 76.139,323.731 76.333,323.917 76.333 C 324.083 76.333,324.167 76.500,324.167 76.833 C 324.167 77.167,324.250 77.333,324.417 77.333 C 324.569 77.333,324.667 77.489,324.667 77.732 C 324.667 77.952,324.779 78.174,324.917 78.227 C 325.054 78.280,325.167 78.496,325.167 78.708 C 325.167 79.084,325.674 79.667,326.002 79.667 C 326.093 79.667,326.167 79.779,326.167 79.917 C 326.167 80.054,326.279 80.167,326.417 80.167 C 326.554 80.167,326.667 80.279,326.667 80.417 C 326.667 80.554,326.779 80.667,326.917 80.667 C 327.054 80.667,327.167 80.779,327.167 80.917 C 327.167 81.054,327.279 81.167,327.417 81.167 C 327.554 81.167,327.667 81.279,327.667 81.417 C 327.667 81.583,327.833 81.667,328.167 81.667 C 328.500 81.667,328.667 81.750,328.667 81.917 C 328.667 82.083,328.833 82.167,329.167 82.167 C 329.500 82.167,329.667 82.250,329.667 82.417 C 329.667 82.596,329.850 82.667,330.316 82.667 C 330.738 82.667,330.998 82.754,331.060 82.917 C 331.141 83.127,331.681 83.167,334.495 83.167 C 337.351 83.167,337.833 83.131,337.833 82.917 C 337.833 82.731,338.028 82.667,338.583 82.667 C 339.139 82.667,339.333 82.602,339.333 82.417 C 339.333 82.260,339.491 82.167,339.755 82.167 C 339.987 82.167,340.220 82.054,340.273 81.917 C 340.326 81.779,340.473 81.667,340.601 81.667 C 340.729 81.667,340.833 81.554,340.833 81.417 C 340.833 81.279,340.946 81.167,341.083 81.167 C 341.221 81.167,341.333 81.054,341.333 80.917 C 341.333 80.779,341.446 80.667,341.583 80.667 C 341.721 80.667,341.833 80.554,341.833 80.417 C 341.833 80.279,341.941 80.167,342.072 80.167 C 342.209 80.167,342.334 79.971,342.364 79.708 C 342.486 78.650,342.753 79.447,342.797 80.999 L 342.845 82.667 346.507 82.667 L 350.168 82.667 350.126 64.292 L 350.083 45.917 346.458 45.884 L 342.833 45.851 342.833 52.759 M247.729 55.911 C 247.672 56.059,247.428 56.167,247.149 56.167 C 246.831 56.167,246.667 56.252,246.667 56.417 C 246.667 56.583,246.500 56.667,246.167 56.667 C 245.833 56.667,245.667 56.750,245.667 56.917 C 245.667 57.054,245.526 57.167,245.354 57.167 C 245.182 57.167,244.947 57.279,244.833 57.417 C 244.719 57.554,244.523 57.667,244.396 57.667 C 244.270 57.667,244.167 57.779,244.167 57.917 C 244.167 58.054,244.054 58.167,243.917 58.167 C 243.779 58.167,243.667 58.279,243.667 58.417 C 243.667 58.554,243.554 58.667,243.417 58.667 C 243.279 58.667,243.167 58.779,243.167 58.917 C 243.167 59.054,243.054 59.167,242.917 59.167 C 242.779 59.167,242.667 59.271,242.667 59.399 C 242.667 59.527,242.554 59.674,242.417 59.727 C 242.279 59.780,242.167 60.013,242.167 60.245 C 242.167 60.509,242.073 60.667,241.917 60.667 C 241.779 60.667,241.667 60.779,241.667 60.917 C 241.667 61.054,241.592 61.167,241.500 61.167 C 241.408 61.167,241.333 61.392,241.333 61.667 C 241.333 62.000,241.250 62.167,241.083 62.167 C 240.904 62.167,240.833 62.350,240.833 62.816 C 240.833 63.238,240.746 63.498,240.583 63.560 C 240.403 63.630,240.333 63.912,240.333 64.578 C 240.333 65.286,240.275 65.500,240.083 65.500 C 239.868 65.500,239.833 66.074,239.833 69.667 C 239.833 73.259,239.868 73.833,240.083 73.833 C 240.269 73.833,240.333 74.028,240.333 74.583 C 240.333 75.139,240.398 75.333,240.583 75.333 C 240.769 75.333,240.833 75.528,240.833 76.083 C 240.833 76.639,240.898 76.833,241.083 76.833 C 241.242 76.833,241.333 76.993,241.333 77.273 C 241.333 77.527,241.509 77.874,241.750 78.098 C 241.979 78.310,242.169 78.581,242.172 78.700 C 242.178 78.929,242.735 79.667,242.902 79.667 C 243.065 79.667,243.667 80.322,243.667 80.500 C 243.667 80.592,243.779 80.667,243.917 80.667 C 244.054 80.667,244.167 80.779,244.167 80.917 C 244.167 81.054,244.279 81.167,244.417 81.167 C 244.554 81.167,244.667 81.279,244.667 81.417 C 244.667 81.583,244.833 81.667,245.167 81.667 C 245.500 81.667,245.667 81.750,245.667 81.917 C 245.667 82.081,245.831 82.167,246.149 82.167 C 246.424 82.167,246.672 82.274,246.727 82.417 C 246.790 82.580,247.049 82.667,247.477 82.667 C 247.905 82.667,248.164 82.753,248.227 82.917 C 248.307 83.126,248.820 83.167,251.411 83.167 C 254.046 83.167,254.500 83.130,254.500 82.917 C 254.500 82.731,254.694 82.667,255.250 82.667 C 255.806 82.667,256.000 82.602,256.000 82.417 C 256.000 82.279,256.112 82.167,256.250 82.167 C 256.387 82.167,256.500 82.054,256.500 81.917 C 256.500 81.768,256.653 81.667,256.880 81.667 C 257.357 81.667,257.833 81.125,257.833 80.581 C 257.833 80.324,257.928 80.167,258.083 80.167 C 258.221 80.167,258.333 80.054,258.333 79.917 C 258.333 79.779,258.446 79.667,258.583 79.667 C 258.742 79.667,258.838 79.499,258.846 79.208 C 258.854 78.956,258.897 78.844,258.944 78.958 C 258.990 79.073,259.134 79.167,259.264 79.167 C 259.433 79.167,259.500 79.381,259.500 79.917 C 259.500 80.329,259.575 80.667,259.667 80.667 C 259.758 80.667,259.835 80.835,259.836 81.042 C 259.840 81.500,260.508 82.167,260.964 82.167 C 261.148 82.167,261.341 82.279,261.394 82.417 C 261.474 82.627,262.014 82.667,264.828 82.667 L 268.167 82.667 268.167 79.250 L 268.167 75.833 267.268 75.833 C 266.352 75.833,265.913 75.379,266.270 74.800 C 266.333 74.699,266.261 74.526,266.110 74.416 C 265.863 74.235,265.832 73.344,265.793 65.233 L 265.750 56.250 262.667 56.201 C 260.971 56.174,259.340 56.196,259.042 56.250 L 258.500 56.348 258.481 57.799 C 258.470 58.597,258.427 59.119,258.385 58.958 C 258.343 58.798,258.202 58.667,258.071 58.667 C 257.927 58.667,257.833 58.499,257.833 58.242 C 257.833 57.721,256.858 56.667,256.376 56.667 C 256.189 56.667,255.992 56.554,255.940 56.417 C 255.876 56.252,255.615 56.167,255.172 56.167 C 254.702 56.167,254.500 56.095,254.500 55.929 C 254.500 55.560,247.871 55.542,247.729 55.911 M374.625 55.779 C 374.465 55.822,374.333 55.927,374.333 56.012 C 374.333 56.097,374.031 56.167,373.661 56.167 C 373.218 56.167,372.957 56.252,372.894 56.417 C 372.828 56.586,372.563 56.667,372.066 56.667 C 371.526 56.667,371.333 56.732,371.333 56.917 C 371.333 57.073,371.175 57.167,370.911 57.167 C 370.679 57.167,370.446 57.279,370.394 57.417 C 370.341 57.554,370.193 57.667,370.066 57.667 C 369.938 57.667,369.833 57.779,369.833 57.917 C 369.833 58.054,369.689 58.167,369.513 58.167 C 369.059 58.167,366.833 60.362,366.833 60.809 C 366.833 61.016,366.728 61.167,366.583 61.167 C 366.446 61.167,366.333 61.279,366.333 61.417 C 366.333 61.554,366.258 61.667,366.167 61.667 C 366.075 61.667,366.000 61.892,366.000 62.167 C 366.000 62.500,365.917 62.667,365.750 62.667 C 365.583 62.667,365.500 62.833,365.500 63.167 C 365.500 63.500,365.417 63.667,365.250 63.667 C 365.058 63.667,365.000 63.880,365.000 64.583 C 365.000 65.287,364.942 65.500,364.750 65.500 C 364.535 65.500,364.500 66.046,364.500 69.417 C 364.500 72.787,364.535 73.333,364.750 73.333 C 364.944 73.333,365.000 73.556,365.000 74.333 C 365.000 75.111,365.056 75.333,365.250 75.333 C 365.417 75.333,365.500 75.500,365.500 75.833 C 365.500 76.167,365.583 76.333,365.750 76.333 C 365.917 76.333,366.000 76.500,366.000 76.833 C 366.000 77.108,366.075 77.333,366.167 77.333 C 366.258 77.333,366.333 77.446,366.333 77.583 C 366.333 77.721,366.446 77.833,366.583 77.833 C 366.721 77.833,366.835 77.965,366.837 78.125 C 366.842 78.457,367.872 79.667,368.150 79.667 C 368.251 79.667,368.333 79.779,368.333 79.917 C 368.333 80.054,368.446 80.167,368.583 80.167 C 368.721 80.167,368.833 80.279,368.833 80.417 C 368.833 80.583,369.000 80.667,369.333 80.667 C 369.667 80.667,369.833 80.750,369.833 80.917 C 369.833 81.054,369.946 81.167,370.083 81.167 C 370.221 81.167,370.333 81.279,370.333 81.417 C 370.333 81.581,370.498 81.667,370.816 81.667 C 371.090 81.667,371.339 81.774,371.394 81.917 C 371.457 82.082,371.718 82.167,372.161 82.167 C 372.648 82.167,372.833 82.236,372.833 82.417 C 372.833 82.602,373.028 82.667,373.583 82.667 C 374.139 82.667,374.333 82.731,374.333 82.917 C 374.333 83.131,374.852 83.167,378.000 83.167 C 381.148 83.167,381.667 83.131,381.667 82.917 C 381.667 82.725,381.880 82.667,382.583 82.667 C 383.287 82.667,383.500 82.609,383.500 82.417 C 383.500 82.250,383.667 82.167,384.000 82.167 C 384.333 82.167,384.500 82.083,384.500 81.917 C 384.500 81.750,384.667 81.667,385.000 81.667 C 385.333 81.667,385.500 81.583,385.500 81.417 C 385.500 81.279,385.613 81.167,385.750 81.167 C 385.887 81.167,386.000 81.054,386.000 80.917 C 386.000 80.750,386.167 80.667,386.500 80.667 C 386.833 80.667,387.000 80.583,387.000 80.417 C 387.000 80.279,387.113 80.167,387.250 80.167 C 387.387 80.167,387.500 80.054,387.500 79.917 C 387.500 79.779,387.613 79.667,387.750 79.667 C 387.887 79.667,388.000 79.592,388.000 79.500 C 388.000 79.408,388.113 79.333,388.250 79.333 C 388.387 79.333,388.503 79.240,388.507 79.125 C 388.511 79.010,388.736 78.733,389.007 78.508 C 389.279 78.283,389.500 77.935,389.500 77.734 C 389.500 77.533,389.613 77.326,389.750 77.273 C 389.887 77.220,390.000 76.987,390.000 76.755 C 390.000 76.491,390.094 76.333,390.250 76.333 C 390.417 76.333,390.500 76.167,390.500 75.833 C 390.500 75.538,390.587 75.333,390.714 75.333 C 390.831 75.333,390.944 75.127,390.965 74.875 C 390.986 74.623,391.077 74.392,391.168 74.361 C 391.261 74.330,391.333 73.653,391.333 72.819 C 391.333 71.610,391.380 71.333,391.583 71.333 C 391.791 71.333,391.833 71.009,391.833 69.417 C 391.833 67.824,391.791 67.500,391.583 67.500 C 391.383 67.500,391.333 67.250,391.333 66.250 C 391.333 65.528,391.263 65.000,391.167 65.000 C 391.075 65.000,391.000 64.698,391.000 64.328 C 391.000 63.885,390.915 63.624,390.750 63.560 C 390.613 63.508,390.500 63.320,390.500 63.144 C 390.500 62.967,390.387 62.780,390.250 62.727 C 390.113 62.674,390.000 62.449,390.000 62.227 C 390.000 62.005,389.887 61.780,389.750 61.727 C 389.607 61.672,389.500 61.424,389.500 61.149 C 389.500 60.884,389.428 60.667,389.339 60.667 C 389.129 60.667,388.000 59.537,388.000 59.328 C 388.000 59.239,387.887 59.167,387.750 59.167 C 387.613 59.167,387.500 59.054,387.500 58.917 C 387.500 58.779,387.387 58.667,387.250 58.667 C 387.113 58.667,387.000 58.554,387.000 58.417 C 387.000 58.250,386.833 58.167,386.500 58.167 C 386.167 58.167,386.000 58.083,386.000 57.917 C 386.000 57.779,385.887 57.667,385.750 57.667 C 385.613 57.667,385.500 57.554,385.500 57.417 C 385.500 57.250,385.333 57.167,385.000 57.167 C 384.667 57.167,384.500 57.083,384.500 56.917 C 384.500 56.752,384.335 56.667,384.014 56.667 C 383.747 56.667,383.500 56.584,383.467 56.484 C 383.433 56.383,383.035 56.259,382.582 56.208 C 382.128 56.157,381.663 56.020,381.547 55.904 C 381.338 55.695,375.333 55.587,374.625 55.779 M284.611 56.278 C 284.550 56.339,284.500 57.876,284.500 59.694 L 284.500 63.000 288.417 63.000 L 292.333 63.000 292.333 69.417 L 292.333 75.833 288.167 75.833 L 284.000 75.833 284.000 79.250 L 284.000 82.667 295.750 82.667 L 307.500 82.667 307.500 79.500 C 307.500 76.796,307.463 76.333,307.250 76.333 C 307.112 76.333,307.000 76.221,307.000 76.083 C 307.000 75.869,306.481 75.833,303.333 75.833 L 299.667 75.833 299.667 66.000 L 299.667 56.167 292.194 56.167 C 288.085 56.167,284.672 56.217,284.611 56.278 M254.000 62.750 C 254.000 62.935,254.194 63.000,254.750 63.000 C 255.306 63.000,255.500 63.065,255.500 63.250 C 255.500 63.417,255.667 63.500,256.000 63.500 C 256.333 63.500,256.500 63.583,256.500 63.750 C 256.500 63.887,256.612 64.000,256.750 64.000 C 256.887 64.000,257.000 64.112,257.000 64.250 C 257.000 64.387,257.112 64.500,257.250 64.500 C 257.417 64.500,257.500 64.667,257.500 65.000 C 257.500 65.333,257.583 65.500,257.750 65.500 C 257.917 65.500,258.000 65.667,258.000 66.000 C 258.000 66.333,258.083 66.500,258.250 66.500 C 258.463 66.500,258.500 66.944,258.500 69.500 C 258.500 71.770,258.451 72.490,258.297 72.458 C 258.183 72.435,258.055 72.657,258.005 72.965 C 257.957 73.266,257.842 73.491,257.750 73.465 C 257.658 73.438,257.560 73.623,257.531 73.875 C 257.500 74.137,257.376 74.333,257.239 74.333 C 257.108 74.333,257.000 74.446,257.000 74.583 C 257.000 74.721,256.887 74.833,256.750 74.833 C 256.612 74.833,256.500 74.946,256.500 75.083 C 256.500 75.250,256.333 75.333,256.000 75.333 C 255.667 75.333,255.500 75.417,255.500 75.583 C 255.500 75.769,255.306 75.833,254.750 75.833 C 254.194 75.833,254.000 75.898,254.000 76.083 C 254.000 76.283,253.750 76.333,252.750 76.333 C 251.750 76.333,251.500 76.283,251.500 76.083 C 251.500 75.898,251.306 75.833,250.750 75.833 C 250.194 75.833,250.000 75.769,250.000 75.583 C 250.000 75.446,249.887 75.333,249.750 75.333 C 249.612 75.333,249.500 75.221,249.500 75.083 C 249.500 74.928,249.343 74.833,249.083 74.833 C 248.775 74.833,248.667 74.745,248.667 74.494 C 248.667 74.308,248.452 73.946,248.191 73.690 C 247.927 73.432,247.663 72.952,247.600 72.612 C 247.537 72.276,247.413 72.000,247.326 72.000 C 247.035 72.000,247.124 67.052,247.417 66.940 C 247.582 66.876,247.667 66.615,247.667 66.172 C 247.667 65.686,247.736 65.500,247.917 65.500 C 248.054 65.500,248.167 65.396,248.167 65.268 C 248.167 65.140,248.279 64.992,248.417 64.940 C 248.554 64.887,248.667 64.654,248.667 64.422 C 248.667 64.083,248.749 64.000,249.083 64.000 C 249.343 64.000,249.500 63.906,249.500 63.750 C 249.500 63.612,249.612 63.500,249.750 63.500 C 249.887 63.500,250.000 63.387,250.000 63.250 C 250.000 63.065,250.194 63.000,250.750 63.000 C 251.306 63.000,251.500 62.935,251.500 62.750 C 251.500 62.550,251.750 62.500,252.750 62.500 C 253.750 62.500,254.000 62.550,254.000 62.750 M338.000 62.750 C 338.000 62.935,338.194 63.000,338.750 63.000 C 339.306 63.000,339.500 63.065,339.500 63.250 C 339.500 63.389,339.648 63.500,339.833 63.500 C 340.181 63.500,340.833 64.044,340.833 64.333 C 340.833 64.425,340.946 64.500,341.083 64.500 C 341.221 64.500,341.333 64.612,341.333 64.750 C 341.333 64.887,341.446 65.000,341.583 65.000 C 341.740 65.000,341.833 65.158,341.833 65.422 C 341.833 65.654,341.946 65.887,342.083 65.940 C 342.226 65.994,342.333 66.243,342.333 66.518 C 342.333 66.835,342.419 67.000,342.583 67.000 C 342.794 67.000,342.833 67.389,342.833 69.500 C 342.833 71.611,342.794 72.000,342.583 72.000 C 342.431 72.000,342.333 72.155,342.333 72.399 C 342.333 72.618,342.221 72.841,342.083 72.894 C 341.946 72.946,341.833 73.179,341.833 73.411 C 341.833 73.675,341.740 73.833,341.583 73.833 C 341.446 73.833,341.333 73.908,341.333 74.000 C 341.333 74.216,340.716 74.833,340.500 74.833 C 340.408 74.833,340.333 74.946,340.333 75.083 C 340.333 75.239,340.176 75.333,339.917 75.333 C 339.657 75.333,339.500 75.428,339.500 75.583 C 339.500 75.769,339.306 75.833,338.750 75.833 C 338.194 75.833,338.000 75.898,338.000 76.083 C 338.000 76.287,337.722 76.333,336.495 76.333 C 335.311 76.333,334.969 76.280,334.894 76.083 C 334.831 75.920,334.572 75.833,334.149 75.833 C 333.683 75.833,333.500 75.763,333.500 75.583 C 333.500 75.446,333.396 75.333,333.268 75.333 C 333.140 75.333,332.992 75.221,332.940 75.083 C 332.887 74.946,332.654 74.833,332.422 74.833 C 332.158 74.833,332.000 74.740,332.000 74.583 C 332.000 74.446,331.887 74.333,331.750 74.333 C 331.600 74.333,331.500 74.180,331.500 73.951 C 331.500 73.730,331.291 73.395,331.007 73.159 C 330.578 72.803,330.513 72.637,330.507 71.875 C 330.502 71.211,330.440 71.000,330.250 71.000 C 330.046 71.000,330.000 70.722,330.000 69.500 C 330.000 68.278,330.046 68.000,330.250 68.000 C 330.444 68.000,330.500 67.778,330.500 67.000 C 330.500 66.222,330.556 66.000,330.750 66.000 C 330.887 66.000,331.000 65.896,331.000 65.768 C 331.000 65.640,331.112 65.492,331.250 65.440 C 331.387 65.387,331.500 65.154,331.500 64.922 C 331.500 64.658,331.594 64.500,331.750 64.500 C 331.887 64.500,332.000 64.387,332.000 64.250 C 332.000 64.083,332.167 64.000,332.500 64.000 C 332.833 64.000,333.000 63.917,333.000 63.750 C 333.000 63.612,333.112 63.500,333.250 63.500 C 333.387 63.500,333.500 63.387,333.500 63.250 C 333.500 63.065,333.694 63.000,334.250 63.000 C 334.806 63.000,335.000 62.935,335.000 62.750 C 335.000 62.546,335.278 62.500,336.500 62.500 C 337.722 62.500,338.000 62.546,338.000 62.750 M379.667 62.750 C 379.667 62.917,379.833 63.000,380.167 63.000 C 380.500 63.000,380.667 63.083,380.667 63.250 C 380.667 63.417,380.833 63.500,381.167 63.500 C 381.500 63.500,381.667 63.583,381.667 63.750 C 381.667 63.887,381.779 64.000,381.917 64.000 C 382.054 64.000,382.167 64.112,382.167 64.250 C 382.167 64.387,382.279 64.500,382.417 64.500 C 382.554 64.500,382.667 64.612,382.667 64.750 C 382.667 64.887,382.779 65.000,382.917 65.000 C 383.054 65.000,383.167 65.112,383.167 65.250 C 383.167 65.387,383.279 65.500,383.417 65.500 C 383.583 65.500,383.667 65.667,383.667 66.000 C 383.667 66.275,383.742 66.500,383.833 66.500 C 383.925 66.500,384.000 66.915,384.000 67.422 C 384.000 68.088,384.069 68.370,384.250 68.440 C 384.552 68.556,384.612 70.435,384.317 70.533 C 384.216 70.567,384.102 71.004,384.063 71.505 C 384.024 72.007,383.919 72.442,383.829 72.472 C 383.740 72.503,383.667 72.701,383.667 72.913 C 383.667 73.124,383.554 73.341,383.417 73.394 C 383.279 73.446,383.167 73.604,383.167 73.745 C 383.167 73.885,383.054 74.000,382.917 74.000 C 382.779 74.000,382.667 74.075,382.667 74.167 C 382.667 74.258,382.554 74.333,382.417 74.333 C 382.279 74.333,382.167 74.446,382.167 74.583 C 382.167 74.721,382.054 74.833,381.917 74.833 C 381.779 74.833,381.667 74.946,381.667 75.083 C 381.667 75.250,381.500 75.333,381.167 75.333 C 380.833 75.333,380.667 75.417,380.667 75.583 C 380.667 75.750,380.500 75.833,380.167 75.833 C 379.833 75.833,379.667 75.917,379.667 76.083 C 379.667 76.287,379.389 76.333,378.167 76.333 C 376.944 76.333,376.667 76.287,376.667 76.083 C 376.667 75.898,376.472 75.833,375.917 75.833 C 375.361 75.833,375.167 75.769,375.167 75.583 C 375.167 75.417,375.000 75.333,374.667 75.333 C 374.333 75.333,374.167 75.250,374.167 75.083 C 374.167 74.946,374.054 74.833,373.917 74.833 C 373.779 74.833,373.667 74.750,373.667 74.647 C 373.667 74.545,373.367 74.170,373.000 73.814 C 372.633 73.458,372.333 73.021,372.333 72.842 C 372.333 72.663,372.232 72.457,372.108 72.383 C 371.621 72.096,371.620 66.500,372.107 66.500 C 372.232 66.500,372.324 66.444,372.314 66.375 C 372.241 65.915,372.369 65.500,372.583 65.500 C 372.721 65.500,372.833 65.387,372.833 65.250 C 372.833 65.112,372.946 65.000,373.083 65.000 C 373.221 65.000,373.333 64.887,373.333 64.750 C 373.333 64.612,373.408 64.500,373.500 64.500 C 373.592 64.500,373.667 64.387,373.667 64.250 C 373.667 64.112,373.779 64.000,373.917 64.000 C 374.054 64.000,374.167 63.887,374.167 63.750 C 374.167 63.583,374.333 63.500,374.667 63.500 C 375.000 63.500,375.167 63.417,375.167 63.250 C 375.167 63.065,375.361 63.000,375.917 63.000 C 376.472 63.000,376.667 62.935,376.667 62.750 C 376.667 62.546,376.944 62.500,378.167 62.500 C 379.389 62.500,379.667 62.546,379.667 62.750 M21.833 78.583 C 21.833 78.750,21.667 78.833,21.333 78.833 C 21.000 78.833,20.833 78.917,20.833 79.083 C 20.833 79.240,20.675 79.333,20.411 79.333 C 20.179 79.333,19.946 79.446,19.894 79.583 C 19.841 79.721,19.618 79.833,19.399 79.833 C 19.155 79.833,19.000 79.931,19.000 80.083 C 19.000 80.269,18.806 80.333,18.250 80.333 C 17.694 80.333,17.500 80.398,17.500 80.583 C 17.500 80.750,17.333 80.833,17.000 80.833 C 16.725 80.833,16.500 80.908,16.500 81.000 C 16.500 81.092,16.310 81.167,16.078 81.167 C 15.846 81.167,15.613 81.279,15.560 81.417 C 15.508 81.554,15.288 81.667,15.071 81.667 C 14.847 81.667,14.601 81.812,14.498 82.005 C 14.398 82.191,14.245 82.299,14.158 82.245 C 14.071 82.191,14.000 82.264,14.000 82.407 C 14.000 82.574,13.849 82.667,13.578 82.667 C 13.346 82.667,13.113 82.779,13.060 82.917 C 13.008 83.054,12.796 83.167,12.590 83.167 C 12.371 83.167,12.058 83.374,11.833 83.667 C 11.620 83.946,11.293 84.167,11.095 84.167 C 10.744 84.167,10.167 84.685,10.167 85.002 C 10.167 85.093,9.942 85.167,9.667 85.167 C 9.333 85.167,9.167 85.250,9.167 85.417 C 9.167 85.554,9.054 85.667,8.917 85.667 C 8.779 85.667,8.667 85.779,8.667 85.917 C 8.667 86.054,8.554 86.167,8.417 86.167 C 8.279 86.167,8.167 86.279,8.167 86.417 C 8.167 86.554,8.054 86.667,7.917 86.667 C 7.779 86.667,7.667 86.779,7.667 86.917 C 7.667 87.054,7.554 87.167,7.417 87.167 C 7.279 87.167,7.167 87.279,7.167 87.417 C 7.167 87.583,7.000 87.667,6.667 87.667 C 6.333 87.667,6.167 87.750,6.167 87.917 C 6.167 88.054,6.054 88.167,5.917 88.167 C 5.750 88.167,5.667 88.333,5.667 88.667 C 5.667 89.000,5.583 89.167,5.417 89.167 C 5.279 89.167,5.167 89.279,5.167 89.417 C 5.167 89.554,5.093 89.667,5.002 89.667 C 4.683 89.667,4.167 90.245,4.167 90.603 C 4.167 90.802,4.054 91.008,3.917 91.060 C 3.779 91.113,3.667 91.338,3.667 91.560 C 3.667 91.783,3.549 92.010,3.405 92.065 C 3.060 92.197,3.111 97.177,3.458 97.292 C 3.573 97.330,3.667 97.580,3.667 97.847 C 3.667 98.168,3.752 98.333,3.917 98.333 C 4.054 98.333,4.167 98.446,4.167 98.583 C 4.167 98.721,4.279 98.833,4.417 98.833 C 4.554 98.833,4.667 98.946,4.667 99.083 C 4.667 99.221,4.779 99.333,4.917 99.333 C 5.083 99.333,5.167 99.500,5.167 99.833 C 5.167 100.278,5.222 100.333,5.667 100.333 C 6.000 100.333,6.167 100.417,6.167 100.583 C 6.167 100.721,6.279 100.833,6.417 100.833 C 6.554 100.833,6.667 100.946,6.667 101.083 C 6.667 101.221,6.779 101.333,6.917 101.333 C 7.054 101.333,7.167 101.446,7.167 101.583 C 7.167 101.750,7.333 101.833,7.667 101.833 C 8.000 101.833,8.167 101.917,8.167 102.083 C 8.167 102.250,8.333 102.333,8.667 102.333 C 9.000 102.333,9.167 102.417,9.167 102.583 C 9.167 102.750,9.333 102.833,9.667 102.833 C 10.000 102.833,10.167 102.917,10.167 103.083 C 10.167 103.236,10.322 103.333,10.566 103.333 C 10.785 103.333,11.008 103.446,11.060 103.583 C 11.113 103.721,11.338 103.833,11.560 103.833 C 11.783 103.833,12.008 103.946,12.060 104.083 C 12.121 104.242,12.377 104.333,12.757 104.333 C 13.087 104.333,13.470 104.446,13.607 104.583 C 13.745 104.721,14.106 104.833,14.411 104.833 C 14.749 104.833,15.002 104.931,15.060 105.083 C 15.123 105.247,15.383 105.333,15.810 105.333 C 16.238 105.333,16.498 105.420,16.560 105.583 C 16.630 105.764,16.912 105.833,17.578 105.833 C 18.085 105.833,18.500 105.908,18.500 106.000 C 18.500 106.093,18.944 106.167,19.500 106.167 C 20.278 106.167,20.500 106.222,20.500 106.417 C 20.500 106.615,20.741 106.667,21.667 106.667 C 22.593 106.667,22.833 106.718,22.833 106.917 C 22.833 107.120,23.111 107.167,24.333 107.167 C 25.556 107.167,25.833 107.213,25.833 107.417 C 25.833 107.624,26.155 107.667,27.732 107.667 C 29.266 107.667,29.649 107.715,29.727 107.917 C 29.807 108.125,30.273 108.167,32.495 108.167 C 34.780 108.167,35.167 108.204,35.167 108.421 C 35.167 109.060,63.960 108.160,70.417 107.318 C 71.150 107.223,72.612 107.078,73.667 106.996 C 74.721 106.915,76.408 106.730,77.417 106.586 C 78.425 106.442,80.262 106.217,81.500 106.086 C 82.737 105.955,84.012 105.773,84.333 105.682 C 84.654 105.592,85.289 105.475,85.743 105.424 C 86.198 105.372,86.644 105.256,86.735 105.165 C 86.826 105.074,87.279 104.998,87.742 104.996 C 88.205 104.994,88.883 104.913,89.250 104.816 C 89.922 104.640,91.867 104.291,93.790 104.002 C 94.362 103.917,94.976 103.769,95.154 103.673 C 95.332 103.578,95.727 103.500,96.032 103.500 C 96.336 103.500,96.848 103.418,97.168 103.318 C 98.149 103.012,99.699 102.653,100.750 102.488 C 101.300 102.402,101.862 102.285,102.000 102.229 C 102.138 102.172,102.662 102.030,103.167 101.912 C 105.029 101.479,106.926 100.977,107.250 100.832 C 107.433 100.750,108.221 100.523,109.000 100.328 C 109.779 100.133,110.567 99.910,110.750 99.832 C 110.933 99.755,111.271 99.653,111.500 99.606 C 112.710 99.355,114.398 98.840,115.464 98.395 C 115.765 98.269,116.178 98.164,116.381 98.161 C 116.584 98.158,116.896 98.046,117.074 97.911 C 117.251 97.777,117.589 97.664,117.824 97.661 C 118.058 97.658,118.396 97.546,118.574 97.411 C 118.751 97.277,119.054 97.167,119.247 97.167 C 119.439 97.167,119.890 97.017,120.250 96.833 C 120.610 96.650,121.034 96.500,121.192 96.500 C 121.351 96.500,121.521 96.434,121.572 96.352 C 121.622 96.271,121.945 96.152,122.290 96.088 C 122.635 96.024,123.279 95.791,123.722 95.569 C 124.165 95.348,124.614 95.167,124.720 95.167 C 125.031 95.167,126.332 94.595,126.333 94.458 C 126.334 94.270,125.035 94.308,124.917 94.500 C 124.860 94.592,124.607 94.667,124.355 94.667 C 124.103 94.667,123.751 94.777,123.574 94.911 C 123.396 95.046,123.063 95.161,122.833 95.167 C 122.604 95.172,122.271 95.287,122.093 95.422 C 121.915 95.557,121.615 95.667,121.426 95.668 C 121.238 95.668,120.869 95.781,120.606 95.918 C 120.343 96.055,120.020 96.167,119.887 96.167 C 119.646 96.167,118.358 96.525,117.417 96.854 C 116.689 97.109,115.873 97.334,114.833 97.567 C 114.329 97.680,113.804 97.823,113.667 97.886 C 113.529 97.948,113.079 98.073,112.667 98.164 C 112.254 98.254,111.317 98.461,110.583 98.623 C 109.850 98.784,109.171 98.968,109.074 99.032 C 108.977 99.095,108.506 99.199,108.028 99.262 C 107.550 99.325,107.119 99.442,107.070 99.522 C 107.021 99.602,106.687 99.667,106.329 99.667 C 105.971 99.667,105.357 99.771,104.964 99.898 C 104.571 100.026,103.879 100.176,103.424 100.233 C 102.970 100.290,102.370 100.406,102.091 100.492 C 101.544 100.659,100.406 100.880,98.167 101.251 C 97.388 101.380,96.487 101.530,96.167 101.584 C 95.846 101.639,95.096 101.789,94.500 101.918 C 93.135 102.215,89.972 102.639,84.667 103.236 C 83.429 103.375,81.929 103.563,81.333 103.654 C 80.001 103.858,78.494 104.005,77.500 104.029 C 77.087 104.039,76.675 104.102,76.583 104.168 C 76.492 104.235,75.517 104.334,74.417 104.388 C 73.317 104.442,71.507 104.569,70.396 104.670 C 65.005 105.160,52.430 105.393,46.833 105.106 C 44.457 104.984,43.949 104.899,43.127 104.481 C 42.968 104.400,42.312 104.333,41.669 104.333 C 40.741 104.333,40.500 104.282,40.500 104.083 C 40.500 103.873,40.139 103.833,38.250 103.833 C 36.361 103.833,36.000 103.793,36.000 103.583 C 36.000 103.378,35.703 103.333,34.328 103.333 C 32.996 103.333,32.637 103.283,32.560 103.083 C 32.486 102.889,32.155 102.833,31.066 102.833 C 29.933 102.833,29.667 102.786,29.667 102.583 C 29.667 102.383,29.417 102.333,28.417 102.333 C 27.417 102.333,27.167 102.283,27.167 102.083 C 27.167 101.891,26.953 101.833,26.245 101.833 C 25.579 101.833,25.296 101.764,25.227 101.583 C 25.167 101.428,24.913 101.333,24.554 101.333 C 24.236 101.333,23.864 101.221,23.726 101.083 C 23.589 100.946,23.227 100.833,22.923 100.833 C 22.584 100.833,22.332 100.736,22.273 100.583 C 22.210 100.420,21.951 100.333,21.523 100.333 C 21.095 100.333,20.836 100.247,20.773 100.083 C 20.710 99.920,20.451 99.833,20.023 99.833 C 19.595 99.833,19.336 99.747,19.273 99.583 C 19.220 99.446,18.987 99.333,18.755 99.333 C 18.523 99.333,18.333 99.266,18.333 99.185 C 18.333 99.103,18.146 98.989,17.917 98.932 C 17.688 98.874,17.500 98.753,17.500 98.663 C 17.500 98.574,17.283 98.500,17.018 98.500 C 16.743 98.500,16.494 98.393,16.440 98.250 C 16.387 98.112,16.154 98.000,15.922 98.000 C 15.658 98.000,15.500 97.906,15.500 97.750 C 15.500 97.612,15.387 97.500,15.250 97.500 C 15.112 97.500,15.000 97.388,15.000 97.250 C 15.000 97.112,14.887 97.000,14.750 97.000 C 14.612 97.000,14.500 96.888,14.500 96.750 C 14.500 96.583,14.333 96.500,14.000 96.500 C 13.667 96.500,13.500 96.417,13.500 96.250 C 13.500 96.112,13.387 96.000,13.250 96.000 C 13.083 96.000,13.000 95.833,13.000 95.500 C 13.000 95.167,12.917 95.000,12.750 95.000 C 12.612 95.000,12.500 94.888,12.500 94.750 C 12.500 94.612,12.387 94.500,12.250 94.500 C 12.083 94.500,12.000 94.333,12.000 94.000 C 12.000 93.667,11.917 93.500,11.750 93.500 C 11.565 93.500,11.500 93.306,11.500 92.750 C 11.500 92.194,11.435 92.000,11.250 92.000 C 11.085 92.000,11.000 91.835,11.000 91.518 C 11.000 91.243,11.107 90.994,11.250 90.940 C 11.431 90.870,11.500 90.588,11.500 89.922 C 11.500 89.214,11.558 89.000,11.750 89.000 C 11.906 89.000,12.000 88.843,12.000 88.583 C 12.000 88.324,12.094 88.167,12.250 88.167 C 12.387 88.167,12.500 88.062,12.500 87.934 C 12.500 87.807,12.612 87.659,12.750 87.606 C 12.887 87.554,13.000 87.321,13.000 87.089 C 13.000 86.825,13.094 86.667,13.250 86.667 C 13.387 86.667,13.500 86.554,13.500 86.417 C 13.500 86.279,13.612 86.167,13.750 86.167 C 13.887 86.167,14.000 86.054,14.000 85.917 C 14.000 85.779,14.095 85.667,14.210 85.667 C 14.326 85.667,14.495 85.498,14.585 85.292 C 14.676 85.085,14.919 84.843,15.125 84.752 C 15.331 84.662,15.500 84.493,15.500 84.377 C 15.500 84.261,15.612 84.167,15.750 84.167 C 15.887 84.167,16.000 84.054,16.000 83.917 C 16.000 83.779,16.112 83.667,16.250 83.667 C 16.387 83.667,16.500 83.554,16.500 83.417 C 16.500 83.268,16.653 83.167,16.880 83.167 C 17.252 83.167,17.833 82.657,17.833 82.331 C 17.833 82.241,17.946 82.167,18.083 82.167 C 18.221 82.167,18.333 82.054,18.333 81.917 C 18.333 81.750,18.500 81.667,18.833 81.667 C 19.167 81.667,19.333 81.583,19.333 81.417 C 19.333 81.250,19.500 81.167,19.833 81.167 C 20.167 81.167,20.333 81.083,20.333 80.917 C 20.333 80.779,20.446 80.667,20.583 80.667 C 20.721 80.667,20.833 80.554,20.833 80.417 C 20.833 80.250,21.000 80.167,21.333 80.167 C 21.667 80.167,21.833 80.083,21.833 79.917 C 21.833 79.750,22.000 79.667,22.333 79.667 C 22.672 79.667,22.833 79.584,22.833 79.410 C 22.833 79.230,22.970 79.168,23.292 79.202 C 23.682 79.243,23.758 79.182,23.803 78.792 C 23.855 78.336,23.849 78.333,22.844 78.333 C 22.057 78.333,21.833 78.389,21.833 78.583 M126.417 94.000 C 126.358 94.094,126.495 94.167,126.730 94.167 C 126.959 94.167,127.193 94.092,127.250 94.000 C 127.308 93.906,127.172 93.833,126.936 93.833 C 126.707 93.833,126.473 93.908,126.417 94.000 M166.106 97.583 C 166.159 97.721,166.307 97.833,166.434 97.833 C 166.562 97.833,166.667 97.721,166.667 97.583 C 166.667 97.446,166.519 97.333,166.339 97.333 C 166.115 97.333,166.041 97.413,166.106 97.583 M165.081 99.174 C 164.942 99.613,165.243 99.990,165.516 99.718 C 165.737 99.496,165.657 98.969,165.389 98.880 C 165.282 98.844,165.144 98.977,165.081 99.174 M152.333 118.750 C 152.333 118.888,152.221 119.000,152.083 119.000 C 151.946 119.000,151.833 119.112,151.833 119.250 C 151.833 119.388,151.946 119.500,152.083 119.500 C 152.221 119.500,152.333 119.388,152.333 119.250 C 152.333 119.112,152.446 119.000,152.583 119.000 C 152.721 119.000,152.833 118.888,152.833 118.750 C 152.833 118.612,152.721 118.500,152.583 118.500 C 152.446 118.500,152.333 118.612,152.333 118.750 M150.625 120.316 C 150.283 120.663,150.244 121.000,150.546 121.000 C 150.785 121.000,151.333 120.418,151.333 120.165 C 151.333 119.907,150.946 119.990,150.625 120.316 M57.741 123.015 C 57.679 123.114,57.716 123.282,57.821 123.388 C 58.031 123.597,58.390 123.226,58.229 122.966 C 58.113 122.778,57.873 122.802,57.741 123.015 M146.833 123.583 C 146.833 123.722,146.981 123.833,147.167 123.833 C 147.352 123.833,147.500 123.722,147.500 123.583 C 147.500 123.444,147.352 123.333,147.167 123.333 C 146.981 123.333,146.833 123.444,146.833 123.583 M146.000 124.583 C 146.000 124.721,146.112 124.833,146.250 124.833 C 146.387 124.833,146.500 124.721,146.500 124.583 C 146.500 124.446,146.387 124.333,146.250 124.333 C 146.112 124.333,146.000 124.446,146.000 124.583 M144.292 125.681 C 143.934 126.072,143.917 126.333,144.250 126.333 C 144.387 126.333,144.500 126.221,144.500 126.083 C 144.500 125.946,144.612 125.833,144.750 125.833 C 144.887 125.833,145.000 125.721,145.000 125.583 C 145.000 125.243,144.646 125.292,144.292 125.681 M142.500 126.927 C 142.500 127.065,142.387 127.220,142.250 127.273 C 142.112 127.326,142.000 127.473,142.000 127.601 C 142.000 127.729,142.112 127.833,142.250 127.833 C 142.387 127.833,142.500 127.721,142.500 127.583 C 142.500 127.446,142.612 127.333,142.750 127.333 C 142.887 127.333,143.000 127.229,143.000 127.101 C 143.000 126.973,142.887 126.826,142.750 126.773 C 142.596 126.714,142.500 126.773,142.500 126.927 M140.500 128.596 C 140.500 128.751,140.613 128.836,140.778 128.804 C 141.196 128.723,141.253 128.333,140.847 128.333 C 140.642 128.333,140.500 128.441,140.500 128.596 M139.600 128.789 C 139.380 129.009,139.520 129.333,139.833 129.333 C 140.017 129.333,140.167 129.229,140.167 129.101 C 140.167 128.850,139.762 128.627,139.600 128.789 M138.167 130.000 C 138.167 130.219,138.247 130.292,138.417 130.227 C 138.554 130.174,138.667 130.072,138.667 130.000 C 138.667 129.928,138.554 129.826,138.417 129.773 C 138.247 129.708,138.167 129.781,138.167 130.000 M137.115 130.274 C 136.879 130.510,137.012 130.833,137.346 130.833 C 137.579 130.833,137.674 130.743,137.637 130.555 C 137.578 130.249,137.293 130.096,137.115 130.274 M68.000 130.482 C 68.000 130.564,68.112 130.674,68.250 130.727 C 68.402 130.785,68.500 130.727,68.500 130.578 C 68.500 130.443,68.387 130.333,68.250 130.333 C 68.112 130.333,68.000 130.400,68.000 130.482 M135.667 131.500 C 135.667 131.715,135.751 131.833,135.875 131.792 C 135.990 131.753,136.083 131.622,136.083 131.500 C 136.083 131.378,135.990 131.247,135.875 131.208 C 135.751 131.167,135.667 131.285,135.667 131.500 M70.583 131.833 C 70.462 132.030,70.619 132.333,70.843 132.333 C 70.929 132.333,71.000 132.183,71.000 132.000 C 71.000 131.648,70.758 131.551,70.583 131.833 M134.667 132.014 C 134.667 132.420,135.056 132.363,135.137 131.945 C 135.169 131.780,135.084 131.667,134.929 131.667 C 134.774 131.667,134.667 131.809,134.667 132.014 M71.611 132.278 C 71.419 132.470,71.490 132.667,71.750 132.667 C 71.887 132.667,72.000 132.554,72.000 132.417 C 72.000 132.156,71.803 132.086,71.611 132.278 M133.667 132.417 C 133.667 132.554,133.779 132.667,133.917 132.667 C 134.054 132.667,134.167 132.554,134.167 132.417 C 134.167 132.279,134.054 132.167,133.917 132.167 C 133.779 132.167,133.667 132.279,133.667 132.417 M128.249 134.640 C 127.979 134.910,128.223 135.167,128.750 135.167 C 129.486 135.167,129.552 134.737,128.832 134.631 C 128.557 134.591,128.294 134.595,128.249 134.640 M125.708 135.622 C 125.326 135.755,125.484 136.167,125.917 136.167 C 126.162 136.167,126.333 136.071,126.333 135.934 C 126.333 135.671,126.019 135.514,125.708 135.622 M79.372 135.865 C 79.475 136.174,79.833 136.225,79.833 135.931 C 79.833 135.785,79.715 135.667,79.569 135.667 C 79.424 135.667,79.335 135.756,79.372 135.865 M80.833 136.417 C 80.833 136.554,80.946 136.667,81.083 136.667 C 81.221 136.667,81.333 136.554,81.333 136.417 C 81.333 136.279,81.221 136.167,81.083 136.167 C 80.946 136.167,80.833 136.279,80.833 136.417 M124.333 136.417 C 124.333 136.554,124.446 136.667,124.583 136.667 C 124.721 136.667,124.833 136.554,124.833 136.417 C 124.833 136.279,124.721 136.167,124.583 136.167 C 124.446 136.167,124.333 136.279,124.333 136.417 M122.708 136.610 C 122.289 136.780,122.492 137.167,123.000 137.167 C 123.490 137.167,123.616 136.896,123.250 136.628 C 123.064 136.491,123.008 136.489,122.708 136.610 M121.333 137.333 C 121.333 137.556,121.444 137.667,121.667 137.667 C 122.062 137.667,122.114 137.246,121.736 137.101 C 121.354 136.954,121.333 136.966,121.333 137.333 M85.667 137.816 C 85.667 137.897,85.785 138.010,85.930 138.066 C 86.303 138.208,86.333 138.197,86.333 137.917 C 86.333 137.778,86.185 137.667,86.000 137.667 C 85.817 137.667,85.667 137.734,85.667 137.816 M119.500 137.931 C 119.500 138.076,119.589 138.165,119.698 138.128 C 120.007 138.025,120.058 137.667,119.764 137.667 C 119.619 137.667,119.500 137.785,119.500 137.931 M117.000 138.333 C 117.000 138.593,117.111 138.667,117.500 138.667 C 118.039 138.667,118.201 138.279,117.736 138.101 C 117.254 137.916,117.000 137.996,117.000 138.333 M114.000 138.833 C 114.000 139.017,114.075 139.167,114.167 139.167 C 114.258 139.167,114.333 139.017,114.333 138.833 C 114.333 138.650,114.258 138.500,114.167 138.500 C 114.075 138.500,114.000 138.650,114.000 138.833 M115.000 138.839 C 115.000 139.019,115.112 139.167,115.250 139.167 C 115.388 139.167,115.500 139.062,115.500 138.934 C 115.500 138.807,115.388 138.659,115.250 138.606 C 115.080 138.541,115.000 138.615,115.000 138.839 M111.000 139.333 C 111.000 139.700,111.553 139.791,112.000 139.497 C 112.222 139.352,112.222 139.315,112.000 139.169 C 111.553 138.876,111.000 138.966,111.000 139.333 M99.208 139.610 C 98.918 139.727,98.947 140.000,99.250 140.000 C 99.388 140.000,99.500 139.887,99.500 139.750 C 99.500 139.612,99.481 139.506,99.458 139.513 C 99.435 139.520,99.323 139.564,99.208 139.610 M100.192 139.740 C 100.224 139.893,100.325 140.014,100.417 140.009 C 100.664 139.996,100.619 139.623,100.359 139.536 C 100.219 139.490,100.156 139.566,100.192 139.740 M104.167 139.845 C 104.167 140.107,104.256 140.177,104.540 140.137 C 105.094 140.058,105.143 139.500,104.596 139.500 C 104.273 139.500,104.167 139.585,104.167 139.845 M106.167 139.755 C 106.167 139.890,106.279 140.000,106.417 140.000 C 106.554 140.000,106.667 139.933,106.667 139.851 C 106.667 139.769,106.554 139.659,106.417 139.606 C 106.264 139.548,106.167 139.606,106.167 139.755 " stroke="none" fill="#74dcd4" fill-rule="evenodd"></path><path id="path1" d="M94.560 3.417 C 94.486 3.612,94.155 3.667,93.060 3.667 C 91.966 3.667,91.635 3.722,91.560 3.917 C 91.488 4.105,91.183 4.167,90.316 4.167 C 89.405 4.167,89.167 4.219,89.167 4.417 C 89.167 4.611,88.944 4.667,88.167 4.667 C 87.389 4.667,87.167 4.722,87.167 4.917 C 87.167 5.111,86.944 5.167,86.167 5.167 C 85.389 5.167,85.167 5.222,85.167 5.417 C 85.167 5.611,84.944 5.667,84.167 5.667 C 83.389 5.667,83.167 5.722,83.167 5.917 C 83.167 6.102,82.972 6.167,82.417 6.167 C 81.861 6.167,81.667 6.231,81.667 6.417 C 81.667 6.597,81.481 6.667,81.000 6.667 C 80.519 6.667,80.333 6.736,80.333 6.917 C 80.333 7.102,80.139 7.167,79.583 7.167 C 79.028 7.167,78.833 7.231,78.833 7.417 C 78.833 7.602,78.639 7.667,78.083 7.667 C 77.528 7.667,77.333 7.731,77.333 7.917 C 77.333 8.102,77.139 8.167,76.583 8.167 C 76.028 8.167,75.833 8.231,75.833 8.417 C 75.833 8.583,75.667 8.667,75.333 8.667 C 75.000 8.667,74.833 8.750,74.833 8.917 C 74.833 9.083,74.667 9.167,74.333 9.167 C 74.000 9.167,73.833 9.250,73.833 9.417 C 73.833 9.583,73.667 9.667,73.333 9.667 C 73.000 9.667,72.833 9.750,72.833 9.917 C 72.833 10.072,72.676 10.167,72.417 10.167 C 72.188 10.167,72.000 10.242,72.000 10.333 C 72.000 10.425,71.775 10.500,71.500 10.500 C 71.167 10.500,71.000 10.583,71.000 10.750 C 71.000 10.917,70.833 11.000,70.500 11.000 C 70.167 11.000,70.000 11.083,70.000 11.250 C 70.000 11.387,69.887 11.500,69.750 11.500 C 69.612 11.500,69.500 11.612,69.500 11.750 C 69.500 11.917,69.333 12.000,69.000 12.000 C 68.667 12.000,68.500 12.083,68.500 12.250 C 68.500 12.417,68.333 12.500,68.000 12.500 C 67.667 12.500,67.500 12.583,67.500 12.750 C 67.500 12.887,67.387 13.000,67.250 13.000 C 67.112 13.000,67.000 13.112,67.000 13.250 C 67.000 13.417,66.833 13.500,66.500 13.500 C 66.167 13.500,66.000 13.583,66.000 13.750 C 66.000 13.906,65.842 14.000,65.578 14.000 C 65.346 14.000,65.113 14.112,65.060 14.250 C 65.008 14.387,64.860 14.500,64.732 14.500 C 64.604 14.500,64.500 14.612,64.500 14.750 C 64.500 14.887,64.387 15.000,64.250 15.000 C 64.112 15.000,64.000 15.112,64.000 15.250 C 64.000 15.406,63.843 15.500,63.583 15.500 C 63.324 15.500,63.167 15.594,63.167 15.750 C 63.167 15.887,63.054 16.000,62.917 16.000 C 62.779 16.000,62.667 16.112,62.667 16.250 C 62.667 16.417,62.500 16.500,62.167 16.500 C 61.833 16.500,61.667 16.583,61.667 16.750 C 61.667 16.887,61.554 17.000,61.417 17.000 C 61.279 17.000,61.167 17.112,61.167 17.250 C 61.167 17.387,61.054 17.500,60.917 17.500 C 60.779 17.500,60.667 17.612,60.667 17.750 C 60.667 17.917,60.500 18.000,60.167 18.000 C 59.833 18.000,59.667 18.083,59.667 18.250 C 59.667 18.387,59.554 18.500,59.417 18.500 C 59.279 18.500,59.167 18.612,59.167 18.750 C 59.167 18.887,59.054 19.000,58.917 19.000 C 58.779 19.000,58.667 19.075,58.667 19.167 C 58.667 19.258,58.554 19.333,58.417 19.333 C 58.279 19.333,58.167 19.446,58.167 19.583 C 58.167 19.721,58.054 19.833,57.917 19.833 C 57.779 19.833,57.667 19.946,57.667 20.083 C 57.667 20.221,57.554 20.333,57.417 20.333 C 57.279 20.333,57.167 20.446,57.167 20.583 C 57.167 20.721,57.054 20.833,56.917 20.833 C 56.779 20.833,56.667 20.946,56.667 21.083 C 56.667 21.228,56.516 21.333,56.309 21.333 C 55.947 21.333,54.833 22.334,54.833 22.658 C 54.833 22.755,54.721 22.833,54.583 22.833 C 54.446 22.833,54.333 22.946,54.333 23.083 C 54.333 23.221,54.221 23.333,54.083 23.333 C 53.946 23.333,53.833 23.446,53.833 23.583 C 53.833 23.721,53.721 23.833,53.583 23.833 C 53.446 23.833,53.333 23.946,53.333 24.083 C 53.333 24.221,53.221 24.333,53.083 24.333 C 52.946 24.333,52.833 24.446,52.833 24.583 C 52.833 24.721,52.721 24.833,52.583 24.833 C 52.446 24.833,52.333 24.946,52.333 25.083 C 52.333 25.221,52.221 25.333,52.083 25.333 C 51.917 25.333,51.833 25.500,51.833 25.833 C 51.833 26.167,51.750 26.333,51.583 26.333 C 51.446 26.333,51.333 26.446,51.333 26.583 C 51.333 26.721,51.221 26.833,51.083 26.833 C 50.946 26.833,50.833 26.946,50.833 27.083 C 50.833 27.221,50.721 27.333,50.583 27.333 C 50.446 27.333,50.333 27.446,50.333 27.583 C 50.333 27.721,50.259 27.833,50.169 27.833 C 49.843 27.833,49.333 28.415,49.333 28.787 C 49.333 29.013,49.232 29.167,49.083 29.167 C 48.946 29.167,48.833 29.279,48.833 29.417 C 48.833 29.554,48.721 29.667,48.583 29.667 C 48.446 29.667,48.333 29.779,48.333 29.917 C 48.333 30.054,48.221 30.167,48.083 30.167 C 47.917 30.167,47.833 30.333,47.833 30.667 C 47.833 31.000,47.750 31.167,47.583 31.167 C 47.446 31.167,47.333 31.279,47.333 31.417 C 47.333 31.554,47.221 31.667,47.083 31.667 C 46.946 31.667,46.833 31.771,46.833 31.899 C 46.833 32.027,46.721 32.174,46.583 32.227 C 46.446 32.280,46.333 32.513,46.333 32.745 C 46.333 32.977,46.258 33.167,46.167 33.167 C 46.075 33.167,46.000 33.279,46.000 33.417 C 46.000 33.554,45.887 33.667,45.750 33.667 C 45.583 33.667,45.500 33.833,45.500 34.167 C 45.500 34.500,45.417 34.667,45.250 34.667 C 45.083 34.667,45.000 34.833,45.000 35.167 C 45.000 35.500,44.917 35.667,44.750 35.667 C 44.612 35.667,44.500 35.779,44.500 35.917 C 44.500 36.054,44.387 36.167,44.250 36.167 C 44.094 36.167,44.000 36.324,44.000 36.583 C 44.000 36.843,43.906 37.000,43.750 37.000 C 43.583 37.000,43.500 37.167,43.500 37.500 C 43.500 37.833,43.417 38.000,43.250 38.000 C 43.112 38.000,43.000 38.112,43.000 38.250 C 43.000 38.387,42.887 38.500,42.750 38.500 C 42.583 38.500,42.500 38.667,42.500 39.000 C 42.500 39.333,42.417 39.500,42.250 39.500 C 42.083 39.500,42.000 39.667,42.000 40.000 C 42.000 40.333,41.917 40.500,41.750 40.500 C 41.583 40.500,41.500 40.667,41.500 41.000 C 41.500 41.333,41.417 41.500,41.250 41.500 C 41.065 41.500,41.000 41.694,41.000 42.250 C 41.000 42.806,40.935 43.000,40.750 43.000 C 40.583 43.000,40.500 43.167,40.500 43.500 C 40.500 43.833,40.417 44.000,40.250 44.000 C 40.083 44.000,40.000 44.167,40.000 44.500 C 40.000 44.833,39.917 45.000,39.750 45.000 C 39.597 45.000,39.500 45.155,39.500 45.399 C 39.500 45.618,39.387 45.841,39.250 45.894 C 39.087 45.956,39.000 46.216,39.000 46.644 C 39.000 47.071,38.913 47.331,38.750 47.394 C 38.585 47.457,38.500 47.718,38.500 48.161 C 38.500 48.648,38.431 48.833,38.250 48.833 C 38.065 48.833,38.000 49.028,38.000 49.583 C 38.000 50.139,37.935 50.333,37.750 50.333 C 37.565 50.333,37.500 50.528,37.500 51.083 C 37.500 51.496,37.425 51.833,37.333 51.833 C 37.242 51.833,37.167 52.171,37.167 52.583 C 37.167 53.139,37.102 53.333,36.917 53.333 C 36.725 53.333,36.667 53.546,36.667 54.250 C 36.667 54.954,36.609 55.167,36.417 55.167 C 36.217 55.167,36.167 55.417,36.167 56.417 C 36.167 57.417,36.117 57.667,35.917 57.667 C 35.713 57.667,35.667 57.944,35.667 59.167 C 35.667 60.389,35.620 60.667,35.417 60.667 C 35.214 60.667,35.167 60.935,35.167 62.083 C 35.167 63.231,35.119 63.500,34.917 63.500 C 34.698 63.500,34.667 64.491,34.667 71.417 C 34.667 78.343,34.698 79.333,34.917 79.333 C 35.122 79.333,35.167 79.630,35.167 81.000 C 35.167 82.370,35.211 82.667,35.417 82.667 C 35.620 82.667,35.667 82.944,35.667 84.167 C 35.667 85.389,35.713 85.667,35.917 85.667 C 36.111 85.667,36.167 85.889,36.167 86.667 C 36.167 87.444,36.222 87.667,36.417 87.667 C 36.609 87.667,36.667 87.880,36.667 88.583 C 36.667 89.287,36.725 89.500,36.917 89.500 C 37.111 89.500,37.167 89.722,37.167 90.500 C 37.167 91.056,37.241 91.500,37.333 91.500 C 37.425 91.500,37.500 91.802,37.500 92.172 C 37.500 92.615,37.585 92.876,37.750 92.940 C 37.913 93.002,38.000 93.262,38.000 93.690 C 38.000 94.117,38.087 94.377,38.250 94.440 C 38.393 94.494,38.500 94.743,38.500 95.018 C 38.500 95.335,38.585 95.500,38.750 95.500 C 38.931 95.500,39.000 95.686,39.000 96.172 C 39.000 96.615,39.085 96.876,39.250 96.940 C 39.413 97.002,39.500 97.262,39.500 97.684 C 39.500 98.150,39.571 98.333,39.750 98.333 C 39.917 98.333,40.000 98.500,40.000 98.833 C 40.000 99.167,40.083 99.333,40.250 99.333 C 40.417 99.333,40.500 99.500,40.500 99.833 C 40.500 100.167,40.583 100.333,40.750 100.333 C 40.917 100.333,41.000 100.500,41.000 100.833 C 41.000 101.167,41.083 101.333,41.250 101.333 C 41.417 101.333,41.500 101.500,41.500 101.833 C 41.500 102.167,41.583 102.333,41.750 102.333 C 41.917 102.333,42.000 102.500,42.000 102.833 C 42.000 103.167,42.083 103.333,42.250 103.333 C 42.412 103.333,42.500 103.495,42.500 103.793 C 42.500 104.154,42.615 104.299,43.042 104.473 C 43.340 104.595,43.733 104.757,43.917 104.834 C 45.334 105.428,63.280 105.317,70.396 104.670 C 71.507 104.569,73.317 104.442,74.417 104.388 C 75.517 104.334,76.492 104.235,76.583 104.168 C 76.675 104.102,77.087 104.039,77.500 104.029 C 78.494 104.005,80.001 103.858,81.333 103.654 C 81.929 103.563,83.429 103.375,84.667 103.236 C 89.972 102.639,93.135 102.215,94.500 101.918 C 95.096 101.789,95.846 101.639,96.167 101.584 C 96.487 101.530,97.388 101.380,98.167 101.251 C 100.406 100.880,101.544 100.659,102.091 100.492 C 102.370 100.406,102.970 100.290,103.424 100.233 C 103.879 100.176,104.571 100.026,104.964 99.898 C 105.357 99.771,105.971 99.667,106.329 99.667 C 106.687 99.667,107.021 99.602,107.070 99.522 C 107.119 99.442,107.550 99.325,108.028 99.262 C 108.506 99.199,108.977 99.095,109.074 99.032 C 109.171 98.968,109.850 98.784,110.583 98.623 C 111.317 98.461,112.254 98.254,112.667 98.164 C 113.079 98.073,113.529 97.948,113.667 97.886 C 113.804 97.823,114.329 97.680,114.833 97.567 C 115.873 97.334,116.689 97.109,117.417 96.854 C 118.358 96.525,119.646 96.167,119.887 96.167 C 120.020 96.167,120.343 96.055,120.606 95.918 C 120.869 95.781,121.238 95.668,121.426 95.668 C 121.615 95.667,121.915 95.557,122.093 95.422 C 122.271 95.287,122.604 95.172,122.833 95.167 C 123.063 95.161,123.396 95.046,123.574 94.911 C 123.751 94.777,124.103 94.667,124.355 94.667 C 124.607 94.667,124.860 94.592,124.917 94.500 C 125.035 94.308,126.334 94.270,126.333 94.458 C 126.332 94.595,125.031 95.167,124.720 95.167 C 124.614 95.167,124.165 95.348,123.722 95.569 C 123.279 95.791,122.635 96.024,122.290 96.088 C 121.945 96.152,121.622 96.271,121.572 96.352 C 121.521 96.434,121.351 96.500,121.192 96.500 C 121.034 96.500,120.610 96.650,120.250 96.833 C 119.890 97.017,119.439 97.167,119.247 97.167 C 119.054 97.167,118.751 97.277,118.574 97.411 C 118.396 97.546,118.058 97.658,117.824 97.661 C 117.589 97.664,117.251 97.777,117.074 97.911 C 116.896 98.046,116.584 98.158,116.381 98.161 C 116.178 98.164,115.765 98.269,115.464 98.395 C 114.398 98.840,112.710 99.355,111.500 99.606 C 111.271 99.653,110.933 99.755,110.750 99.832 C 110.567 99.910,109.779 100.133,109.000 100.328 C 108.221 100.523,107.433 100.750,107.250 100.832 C 106.926 100.977,105.029 101.479,103.167 101.912 C 102.662 102.030,102.138 102.172,102.000 102.229 C 101.862 102.285,101.300 102.402,100.750 102.488 C 99.699 102.653,98.149 103.012,97.168 103.318 C 96.848 103.418,96.336 103.500,96.032 103.500 C 95.727 103.500,95.332 103.578,95.154 103.673 C 94.976 103.769,94.362 103.917,93.790 104.002 C 91.867 104.291,89.922 104.640,89.250 104.816 C 88.883 104.913,88.205 104.994,87.742 104.996 C 87.279 104.998,86.826 105.074,86.735 105.165 C 86.644 105.256,86.198 105.372,85.743 105.424 C 85.289 105.475,84.654 105.592,84.333 105.682 C 84.012 105.773,82.737 105.955,81.500 106.086 C 80.262 106.217,78.425 106.442,77.417 106.586 C 76.408 106.730,74.721 106.915,73.667 106.996 C 72.612 107.078,71.150 107.223,70.417 107.319 C 69.040 107.499,63.227 107.948,60.583 108.079 C 59.758 108.120,56.421 108.197,53.167 108.249 C 46.034 108.363,45.500 108.405,45.500 108.845 C 45.500 109.022,45.612 109.167,45.750 109.167 C 45.917 109.167,46.000 109.333,46.000 109.667 C 46.000 109.942,46.075 110.167,46.167 110.167 C 46.258 110.167,46.333 110.279,46.333 110.417 C 46.333 110.554,46.446 110.667,46.583 110.667 C 46.721 110.667,46.833 110.779,46.833 110.917 C 46.833 111.054,46.946 111.167,47.083 111.167 C 47.240 111.167,47.333 111.325,47.333 111.589 C 47.333 111.821,47.446 112.054,47.583 112.106 C 47.721 112.159,47.833 112.307,47.833 112.434 C 47.833 112.562,47.946 112.667,48.083 112.667 C 48.221 112.667,48.333 112.779,48.333 112.917 C 48.333 113.054,48.446 113.167,48.583 113.167 C 48.740 113.167,48.833 113.325,48.833 113.589 C 48.833 113.821,48.946 114.054,49.083 114.106 C 49.221 114.159,49.333 114.307,49.333 114.434 C 49.333 114.562,49.446 114.667,49.583 114.667 C 49.721 114.667,49.833 114.742,49.833 114.833 C 49.833 114.925,49.946 115.000,50.083 115.000 C 50.221 115.000,50.333 115.112,50.333 115.250 C 50.333 115.388,50.446 115.500,50.583 115.500 C 50.750 115.500,50.833 115.667,50.833 116.000 C 50.833 116.333,50.917 116.500,51.083 116.500 C 51.221 116.500,51.333 116.612,51.333 116.750 C 51.333 116.888,51.446 117.000,51.583 117.000 C 51.721 117.000,51.833 117.112,51.833 117.250 C 51.833 117.388,51.946 117.500,52.083 117.500 C 52.221 117.500,52.333 117.612,52.333 117.750 C 52.333 117.888,52.446 118.000,52.583 118.000 C 52.721 118.000,52.833 118.112,52.833 118.250 C 52.833 118.388,52.946 118.500,53.083 118.500 C 53.221 118.500,53.333 118.612,53.333 118.750 C 53.333 118.888,53.446 119.000,53.583 119.000 C 53.721 119.000,53.833 119.112,53.833 119.250 C 53.833 119.388,53.946 119.500,54.083 119.500 C 54.221 119.500,54.333 119.612,54.333 119.750 C 54.333 119.888,54.446 120.000,54.583 120.000 C 54.721 120.000,54.833 120.112,54.833 120.250 C 54.833 120.388,54.908 120.500,55.000 120.500 C 55.092 120.500,55.167 120.612,55.167 120.750 C 55.167 120.888,55.279 121.000,55.417 121.000 C 55.554 121.000,55.667 121.112,55.667 121.250 C 55.667 121.388,55.743 121.500,55.836 121.500 C 55.929 121.500,56.330 121.839,56.727 122.253 C 57.249 122.798,57.559 122.993,57.849 122.961 C 58.151 122.928,58.238 122.989,58.201 123.208 C 58.172 123.381,58.257 123.500,58.409 123.500 C 58.551 123.500,58.667 123.575,58.667 123.667 C 58.667 123.758,58.779 123.833,58.917 123.833 C 59.054 123.833,59.167 123.946,59.167 124.083 C 59.167 124.221,59.279 124.333,59.417 124.333 C 59.554 124.333,59.667 124.446,59.667 124.583 C 59.667 124.721,59.779 124.833,59.917 124.833 C 60.054 124.833,60.167 124.946,60.167 125.083 C 60.167 125.250,60.333 125.333,60.667 125.333 C 61.000 125.333,61.167 125.417,61.167 125.583 C 61.167 125.721,61.279 125.833,61.417 125.833 C 61.554 125.833,61.667 125.946,61.667 126.083 C 61.667 126.221,61.779 126.333,61.917 126.333 C 62.054 126.333,62.167 126.446,62.167 126.583 C 62.167 126.750,62.333 126.833,62.667 126.833 C 63.000 126.833,63.167 126.917,63.167 127.083 C 63.167 127.221,63.279 127.333,63.417 127.333 C 63.554 127.333,63.667 127.407,63.667 127.498 C 63.667 127.824,64.248 128.333,64.620 128.333 C 64.847 128.333,65.000 128.434,65.000 128.583 C 65.000 128.721,65.112 128.833,65.250 128.833 C 65.387 128.833,65.500 128.946,65.500 129.083 C 65.500 129.250,65.667 129.333,66.000 129.333 C 66.333 129.333,66.500 129.417,66.500 129.583 C 66.500 129.750,66.667 129.833,67.000 129.833 C 67.333 129.833,67.500 129.917,67.500 130.083 C 67.500 130.250,67.667 130.333,68.000 130.333 C 68.333 130.333,68.500 130.417,68.500 130.583 C 68.500 130.721,68.612 130.833,68.750 130.833 C 68.887 130.833,69.000 130.946,69.000 131.083 C 69.000 131.250,69.167 131.333,69.500 131.333 C 69.850 131.333,70.000 131.414,70.000 131.604 C 70.000 131.816,70.109 131.853,70.500 131.775 C 70.929 131.689,71.000 131.725,71.000 132.025 C 71.000 132.325,71.071 132.361,71.500 132.275 C 71.875 132.200,72.000 132.237,72.000 132.421 C 72.000 132.572,72.161 132.667,72.417 132.667 C 72.676 132.667,72.833 132.761,72.833 132.917 C 72.833 133.083,73.000 133.167,73.333 133.167 C 73.667 133.167,73.833 133.250,73.833 133.417 C 73.833 133.583,74.000 133.667,74.333 133.667 C 74.667 133.667,74.833 133.750,74.833 133.917 C 74.833 134.083,75.000 134.167,75.333 134.167 C 75.667 134.167,75.833 134.250,75.833 134.417 C 75.833 134.583,76.000 134.667,76.333 134.667 C 76.667 134.667,76.833 134.750,76.833 134.917 C 76.833 135.102,77.028 135.167,77.583 135.167 C 78.139 135.167,78.333 135.231,78.333 135.417 C 78.333 135.602,78.528 135.667,79.083 135.667 C 79.639 135.667,79.833 135.731,79.833 135.917 C 79.833 136.102,80.028 136.167,80.583 136.167 C 81.139 136.167,81.333 136.231,81.333 136.417 C 81.333 136.569,81.489 136.667,81.732 136.667 C 81.952 136.667,82.174 136.779,82.227 136.917 C 82.290 137.082,82.551 137.167,82.995 137.167 C 83.481 137.167,83.667 137.236,83.667 137.417 C 83.667 137.618,83.926 137.667,85.000 137.667 C 86.074 137.667,86.333 137.715,86.333 137.917 C 86.333 138.109,86.546 138.167,87.250 138.167 C 87.954 138.167,88.167 138.225,88.167 138.417 C 88.167 138.615,88.405 138.667,89.316 138.667 C 90.183 138.667,90.488 138.728,90.560 138.917 C 90.637 139.116,90.996 139.167,92.328 139.167 C 93.726 139.167,94.000 139.209,94.000 139.424 C 94.000 139.649,94.359 139.676,96.750 139.633 C 99.308 139.587,100.325 139.760,99.208 140.052 C 99.048 140.094,99.228 140.137,99.609 140.147 C 100.238 140.165,100.294 140.134,100.209 139.811 C 100.142 139.554,100.181 139.478,100.350 139.537 C 100.478 139.582,100.573 139.742,100.560 139.893 C 100.540 140.131,100.770 140.167,102.352 140.167 C 104.056 140.167,104.167 140.146,104.167 139.833 C 104.167 139.585,104.278 139.500,104.603 139.500 C 104.957 139.500,105.022 139.563,104.952 139.833 C 104.872 140.139,104.942 140.165,105.807 140.147 C 106.326 140.137,106.619 140.094,106.458 140.052 C 105.391 139.773,106.336 139.587,108.583 139.634 C 110.900 139.682,111.000 139.670,111.000 139.353 C 111.000 139.040,111.082 139.027,112.500 139.119 C 113.954 139.213,114.000 139.205,114.000 138.858 C 114.000 138.661,114.075 138.500,114.167 138.500 C 114.258 138.500,114.333 138.650,114.333 138.833 C 114.333 139.056,114.444 139.167,114.667 139.167 C 114.873 139.167,115.000 139.056,115.000 138.875 C 114.999 138.623,115.137 138.591,116.000 138.640 C 116.910 138.691,117.000 138.666,117.000 138.361 C 117.000 138.046,117.077 138.032,118.250 138.120 C 119.337 138.202,119.500 138.179,119.500 137.941 C 119.500 137.720,119.677 137.667,120.417 137.667 C 121.212 137.667,121.333 137.624,121.333 137.344 C 121.333 137.068,121.418 137.035,121.917 137.116 C 122.384 137.191,122.500 137.156,122.500 136.938 C 122.500 136.634,122.614 136.606,123.625 136.659 C 124.177 136.688,124.333 136.638,124.333 136.432 C 124.333 136.240,124.495 136.167,124.917 136.167 C 125.324 136.167,125.500 136.091,125.500 135.917 C 125.500 135.636,125.538 135.629,126.875 135.665 C 127.646 135.685,127.833 135.639,127.833 135.428 C 127.833 135.284,127.903 135.167,127.988 135.167 C 128.073 135.167,128.167 135.040,128.196 134.886 C 128.241 134.653,128.427 134.612,129.292 134.648 C 130.145 134.683,130.333 134.643,130.333 134.428 C 130.333 134.249,130.490 134.167,130.833 134.167 C 131.167 134.167,131.333 134.083,131.333 133.917 C 131.333 133.750,131.500 133.667,131.833 133.667 C 132.167 133.667,132.333 133.583,132.333 133.417 C 132.333 133.250,132.500 133.167,132.833 133.167 C 133.167 133.167,133.333 133.083,133.333 132.917 C 133.333 132.779,133.408 132.667,133.500 132.667 C 133.592 132.667,133.667 132.548,133.667 132.403 C 133.667 132.198,133.776 132.164,134.167 132.250 C 134.602 132.346,134.667 132.313,134.667 132.000 C 134.667 131.687,134.732 131.654,135.167 131.750 C 135.596 131.844,135.667 131.811,135.667 131.517 C 135.667 131.226,135.741 131.190,136.167 131.275 C 136.558 131.353,136.667 131.316,136.667 131.104 C 136.667 130.955,136.733 130.833,136.814 130.833 C 136.895 130.833,137.000 130.684,137.048 130.501 C 137.119 130.228,137.227 130.187,137.651 130.272 C 138.087 130.359,138.167 130.324,138.167 130.050 C 138.167 129.783,138.257 129.738,138.667 129.798 C 139.046 129.853,139.167 129.806,139.167 129.602 C 139.167 129.454,139.233 129.333,139.314 129.333 C 139.395 129.333,139.498 129.192,139.543 129.019 C 139.605 128.782,139.732 128.725,140.063 128.789 C 140.389 128.851,140.500 128.804,140.500 128.603 C 140.500 128.406,140.657 128.333,141.083 128.333 C 141.491 128.333,141.667 128.258,141.667 128.083 C 141.667 127.946,141.742 127.833,141.833 127.833 C 141.925 127.833,142.000 127.729,142.000 127.601 C 142.000 127.473,142.112 127.326,142.250 127.273 C 142.387 127.220,142.500 127.075,142.500 126.951 C 142.500 126.794,142.654 126.747,143.000 126.798 C 143.379 126.853,143.500 126.806,143.500 126.602 C 143.500 126.454,143.612 126.333,143.750 126.333 C 143.887 126.333,144.000 126.258,144.000 126.167 C 144.000 125.848,144.669 125.333,145.083 125.333 C 145.343 125.333,145.500 125.239,145.500 125.083 C 145.500 124.946,145.612 124.833,145.750 124.833 C 145.887 124.833,146.000 124.721,146.000 124.583 C 146.000 124.415,146.168 124.333,146.513 124.333 C 147.002 124.333,147.021 124.308,146.911 123.809 C 146.798 123.293,146.805 123.286,147.321 123.389 C 147.703 123.466,147.872 123.427,147.941 123.247 C 147.993 123.111,148.140 123.000,148.268 123.000 C 148.396 123.000,148.500 122.888,148.500 122.750 C 148.500 122.612,148.612 122.500,148.750 122.500 C 148.887 122.500,149.000 122.388,149.000 122.250 C 149.000 122.112,149.112 122.000,149.250 122.000 C 149.387 122.000,149.500 121.888,149.500 121.750 C 149.500 121.612,149.612 121.500,149.750 121.500 C 149.887 121.500,150.000 121.388,150.000 121.250 C 150.000 121.112,150.075 121.000,150.167 121.000 C 150.258 121.000,150.333 120.904,150.333 120.787 C 150.333 120.455,150.960 120.000,151.419 120.000 C 151.768 120.000,151.833 119.922,151.833 119.500 C 151.833 119.167,151.917 119.000,152.083 119.000 C 152.221 119.000,152.333 118.888,152.333 118.750 C 152.333 118.612,152.446 118.500,152.583 118.500 C 152.721 118.500,152.833 118.388,152.833 118.250 C 152.833 118.112,152.946 118.000,153.083 118.000 C 153.221 118.000,153.333 117.888,153.333 117.750 C 153.333 117.612,153.446 117.500,153.583 117.500 C 153.721 117.500,153.833 117.388,153.833 117.250 C 153.833 117.112,153.946 117.000,154.083 117.000 C 154.221 117.000,154.333 116.888,154.333 116.750 C 154.333 116.612,154.446 116.500,154.583 116.500 C 154.721 116.500,154.833 116.388,154.833 116.250 C 154.833 116.112,154.946 116.000,155.083 116.000 C 155.221 116.000,155.333 115.888,155.333 115.750 C 155.333 115.612,155.446 115.500,155.583 115.500 C 155.721 115.500,155.833 115.388,155.833 115.250 C 155.833 115.112,155.946 115.000,156.083 115.000 C 156.239 115.000,156.333 114.843,156.333 114.583 C 156.333 114.324,156.428 114.167,156.583 114.167 C 156.721 114.167,156.833 114.054,156.833 113.917 C 156.833 113.779,156.946 113.667,157.083 113.667 C 157.221 113.667,157.333 113.554,157.333 113.417 C 157.333 113.279,157.446 113.167,157.583 113.167 C 157.750 113.167,157.833 113.000,157.833 112.667 C 157.833 112.333,157.917 112.167,158.083 112.167 C 158.221 112.167,158.333 112.054,158.333 111.917 C 158.333 111.779,158.446 111.667,158.583 111.667 C 158.721 111.667,158.833 111.562,158.833 111.434 C 158.833 111.307,158.946 111.159,159.083 111.106 C 159.221 111.054,159.333 110.821,159.333 110.589 C 159.333 110.325,159.427 110.167,159.583 110.167 C 159.721 110.167,159.833 110.054,159.833 109.917 C 159.833 109.779,159.908 109.667,160.000 109.667 C 160.092 109.667,160.167 109.442,160.167 109.167 C 160.167 108.833,160.250 108.667,160.417 108.667 C 160.554 108.667,160.667 108.554,160.667 108.417 C 160.667 108.279,160.779 108.167,160.917 108.167 C 161.083 108.167,161.167 108.000,161.167 107.667 C 161.167 107.333,161.250 107.167,161.417 107.167 C 161.583 107.167,161.667 107.000,161.667 106.667 C 161.667 106.333,161.750 106.167,161.917 106.167 C 162.054 106.167,162.167 106.092,162.167 106.000 C 162.167 105.908,162.279 105.833,162.417 105.833 C 162.583 105.833,162.667 105.667,162.667 105.333 C 162.667 105.000,162.750 104.833,162.917 104.833 C 163.083 104.833,163.167 104.667,163.167 104.333 C 163.167 104.000,163.250 103.833,163.417 103.833 C 163.583 103.833,163.667 103.667,163.667 103.333 C 163.667 103.000,163.750 102.833,163.917 102.833 C 164.083 102.833,164.167 102.667,164.167 102.333 C 164.167 102.000,164.250 101.833,164.417 101.833 C 164.583 101.833,164.667 101.667,164.667 101.333 C 164.667 100.981,164.747 100.833,164.940 100.833 C 165.168 100.833,165.198 100.702,165.118 100.033 C 165.024 99.237,165.142 98.790,165.432 98.844 C 166.076 98.966,166.200 98.833,166.141 98.083 C 166.091 97.456,166.129 97.333,166.374 97.333 C 166.572 97.333,166.667 97.204,166.667 96.934 C 166.667 96.715,166.779 96.492,166.917 96.440 C 167.080 96.377,167.167 96.117,167.167 95.690 C 167.167 95.262,167.253 95.002,167.417 94.940 C 167.582 94.876,167.667 94.615,167.667 94.172 C 167.667 93.686,167.736 93.500,167.917 93.500 C 168.102 93.500,168.167 93.306,168.167 92.750 C 168.167 92.194,168.231 92.000,168.417 92.000 C 168.602 92.000,168.667 91.806,168.667 91.250 C 168.667 90.837,168.742 90.500,168.833 90.500 C 168.926 90.500,169.000 90.056,169.000 89.500 C 169.000 88.722,169.056 88.500,169.250 88.500 C 169.442 88.500,169.500 88.287,169.500 87.583 C 169.500 86.880,169.558 86.667,169.750 86.667 C 169.950 86.667,170.000 86.417,170.000 85.417 C 170.000 84.417,170.050 84.167,170.250 84.167 C 170.456 84.167,170.500 83.861,170.500 82.417 C 170.500 80.972,170.544 80.667,170.750 80.667 C 170.952 80.667,171.000 80.401,171.000 79.274 C 171.000 77.782,170.704 77.179,169.295 75.797 C 169.041 75.548,168.833 75.294,168.833 75.231 C 168.833 75.169,168.487 74.735,168.063 74.267 C 167.196 73.309,166.487 72.497,164.883 70.625 C 164.274 69.915,163.709 69.333,163.627 69.333 C 163.357 69.333,162.758 69.710,162.262 70.190 C 161.993 70.450,161.637 70.706,161.470 70.759 C 161.303 70.812,161.167 70.913,161.167 70.984 C 161.167 71.054,160.737 71.405,160.212 71.764 C 159.688 72.123,159.134 72.529,158.981 72.667 C 158.829 72.804,158.094 73.404,157.349 74.000 C 156.604 74.596,155.478 75.515,154.848 76.042 C 154.217 76.569,153.648 77.000,153.583 77.000 C 153.518 77.000,153.235 77.193,152.954 77.429 C 152.204 78.061,152.205 78.065,152.077 70.997 C 152.013 67.469,151.910 64.471,151.848 64.333 C 151.701 64.009,151.723 62.973,151.882 62.720 C 151.950 62.612,151.929 62.476,151.836 62.418 C 151.730 62.353,151.667 60.989,151.667 58.766 L 151.667 55.219 151.180 54.651 C 150.912 54.339,150.220 53.521,149.642 52.833 C 149.064 52.146,148.423 51.396,148.218 51.167 C 148.013 50.938,147.397 50.225,146.851 49.583 C 146.304 48.942,145.631 48.154,145.355 47.833 C 145.080 47.512,144.389 46.699,143.822 46.026 C 143.254 45.352,142.556 44.552,142.270 44.247 C 141.984 43.942,141.506 43.378,141.209 42.995 C 140.911 42.612,140.259 41.837,139.759 41.274 C 138.319 39.650,136.958 37.986,137.023 37.930 C 137.308 37.686,137.956 37.489,138.774 37.397 C 139.311 37.337,139.953 37.185,140.200 37.060 C 140.448 36.935,140.823 36.834,141.033 36.834 C 141.244 36.835,141.754 36.728,142.167 36.597 C 142.579 36.466,143.292 36.284,143.750 36.192 C 144.208 36.101,145.071 35.906,145.667 35.760 C 146.262 35.614,147.087 35.426,147.500 35.341 C 148.266 35.184,149.106 34.975,150.583 34.573 C 151.042 34.448,152.167 34.195,153.083 34.009 C 154.000 33.824,155.237 33.552,155.833 33.404 C 156.429 33.256,157.329 33.043,157.833 32.930 L 158.750 32.725 158.801 32.028 C 158.839 31.516,158.783 31.304,158.593 31.231 C 158.450 31.176,158.333 31.027,158.333 30.899 C 158.333 30.771,158.221 30.667,158.083 30.667 C 157.946 30.667,157.833 30.554,157.833 30.417 C 157.833 30.279,157.721 30.167,157.583 30.167 C 157.417 30.167,157.333 30.000,157.333 29.667 C 157.333 29.333,157.250 29.167,157.083 29.167 C 156.946 29.167,156.833 29.054,156.833 28.917 C 156.833 28.779,156.721 28.667,156.583 28.667 C 156.446 28.667,156.333 28.554,156.333 28.417 C 156.333 28.279,156.221 28.167,156.083 28.167 C 155.928 28.167,155.833 28.009,155.833 27.750 C 155.833 27.491,155.739 27.333,155.583 27.333 C 155.446 27.333,155.333 27.221,155.333 27.083 C 155.333 26.946,155.221 26.833,155.083 26.833 C 154.946 26.833,154.833 26.721,154.833 26.583 C 154.833 26.446,154.721 26.333,154.583 26.333 C 154.446 26.333,154.333 26.221,154.333 26.083 C 154.333 25.946,154.221 25.833,154.083 25.833 C 153.946 25.833,153.833 25.721,153.833 25.583 C 153.833 25.446,153.721 25.333,153.583 25.333 C 153.446 25.333,153.333 25.221,153.333 25.083 C 153.333 24.946,153.221 24.833,153.083 24.833 C 152.946 24.833,152.833 24.721,152.833 24.583 C 152.833 24.446,152.721 24.333,152.583 24.333 C 152.446 24.333,152.333 24.221,152.333 24.083 C 152.333 23.946,152.221 23.833,152.083 23.833 C 151.946 23.833,151.833 23.721,151.833 23.583 C 151.833 23.446,151.721 23.333,151.583 23.333 C 151.446 23.333,151.333 23.221,151.333 23.083 C 151.333 22.946,151.258 22.833,151.167 22.833 C 151.075 22.833,151.000 22.721,151.000 22.583 C 151.000 22.446,150.887 22.333,150.750 22.333 C 150.612 22.333,150.500 22.221,150.500 22.083 C 150.500 21.946,150.387 21.833,150.250 21.833 C 150.112 21.833,150.000 21.721,150.000 21.583 C 150.000 21.446,149.887 21.333,149.750 21.333 C 149.612 21.333,149.500 21.221,149.500 21.083 C 149.500 20.946,149.387 20.833,149.250 20.833 C 149.112 20.833,149.000 20.721,149.000 20.583 C 149.000 20.446,148.887 20.333,148.750 20.333 C 148.612 20.333,148.500 20.221,148.500 20.083 C 148.500 19.946,148.421 19.833,148.325 19.833 C 148.229 19.833,147.977 19.646,147.765 19.417 C 147.541 19.175,147.194 19.000,146.939 19.000 C 146.660 19.000,146.500 18.909,146.500 18.750 C 146.500 18.612,146.387 18.500,146.250 18.500 C 146.112 18.500,146.000 18.387,146.000 18.250 C 146.000 18.112,145.887 18.000,145.750 18.000 C 145.612 18.000,145.500 17.887,145.500 17.750 C 145.500 17.583,145.333 17.500,145.000 17.500 C 144.667 17.500,144.500 17.417,144.500 17.250 C 144.500 17.112,144.387 17.000,144.250 17.000 C 144.112 17.000,144.000 16.887,144.000 16.750 C 144.000 16.612,143.887 16.500,143.750 16.500 C 143.612 16.500,143.500 16.387,143.500 16.250 C 143.500 16.083,143.333 16.000,143.000 16.000 C 142.667 16.000,142.500 15.917,142.500 15.750 C 142.500 15.612,142.425 15.500,142.333 15.500 C 142.242 15.500,142.167 15.387,142.167 15.250 C 142.167 15.112,142.062 15.000,141.934 15.000 C 141.807 15.000,141.659 14.888,141.606 14.750 C 141.554 14.612,141.321 14.500,141.089 14.500 C 140.825 14.500,140.667 14.406,140.667 14.250 C 140.667 14.112,140.554 14.000,140.417 14.000 C 140.279 14.000,140.167 13.887,140.167 13.750 C 140.167 13.583,140.000 13.500,139.667 13.500 C 139.333 13.500,139.167 13.417,139.167 13.250 C 139.167 13.083,139.000 13.000,138.667 13.000 C 138.333 13.000,138.167 12.917,138.167 12.750 C 138.167 12.612,138.062 12.500,137.934 12.500 C 137.807 12.500,137.659 12.388,137.606 12.250 C 137.554 12.112,137.321 12.000,137.089 12.000 C 136.825 12.000,136.667 11.906,136.667 11.750 C 136.667 11.583,136.500 11.500,136.167 11.500 C 135.833 11.500,135.667 11.417,135.667 11.250 C 135.667 11.112,135.554 11.000,135.417 11.000 C 135.279 11.000,135.167 10.887,135.167 10.750 C 135.167 10.583,135.000 10.500,134.667 10.500 C 134.392 10.500,134.167 10.425,134.167 10.333 C 134.167 10.242,133.867 10.167,133.500 10.167 C 133.019 10.167,132.833 10.097,132.833 9.917 C 132.833 9.750,132.667 9.667,132.333 9.667 C 132.000 9.667,131.833 9.583,131.833 9.417 C 131.833 9.250,131.667 9.167,131.333 9.167 C 131.000 9.167,130.833 9.083,130.833 8.917 C 130.833 8.750,130.667 8.667,130.333 8.667 C 130.000 8.667,129.833 8.583,129.833 8.417 C 129.833 8.231,129.639 8.167,129.083 8.167 C 128.528 8.167,128.333 8.102,128.333 7.917 C 128.333 7.750,128.167 7.667,127.833 7.667 C 127.500 7.667,127.333 7.583,127.333 7.417 C 127.333 7.231,127.139 7.167,126.583 7.167 C 126.028 7.167,125.833 7.102,125.833 6.917 C 125.833 6.737,125.650 6.667,125.184 6.667 C 124.762 6.667,124.502 6.580,124.440 6.417 C 124.377 6.253,124.117 6.167,123.690 6.167 C 123.262 6.167,123.002 6.080,122.940 5.917 C 122.870 5.736,122.588 5.667,121.922 5.667 C 121.214 5.667,121.000 5.609,121.000 5.417 C 121.000 5.222,120.778 5.167,120.000 5.167 C 119.222 5.167,119.000 5.111,119.000 4.917 C 119.000 4.722,118.778 4.667,118.000 4.667 C 117.222 4.667,117.000 4.611,117.000 4.417 C 117.000 4.214,116.733 4.167,115.601 4.167 C 114.512 4.167,114.181 4.111,114.106 3.917 C 114.030 3.718,113.673 3.667,112.356 3.667 C 111.040 3.667,110.683 3.616,110.606 3.417 C 110.523 3.199,109.476 3.167,102.583 3.167 C 95.691 3.167,94.644 3.199,94.560 3.417 M301.548 49.083 C 301.549 49.542,301.581 49.709,301.620 49.456 C 301.658 49.203,301.657 48.828,301.617 48.623 C 301.578 48.418,301.546 48.625,301.548 49.083 M371.714 69.250 C 371.716 69.708,371.748 69.876,371.786 69.623 C 371.825 69.369,371.824 68.994,371.784 68.789 C 371.744 68.584,371.713 68.792,371.714 69.250 M198.542 70.583 C 198.544 70.950,198.578 71.080,198.618 70.873 C 198.658 70.666,198.656 70.366,198.615 70.206 C 198.573 70.047,198.540 70.217,198.542 70.583 M322.709 71.417 C 322.711 71.783,322.745 71.914,322.785 71.706 C 322.824 71.499,322.823 71.199,322.781 71.040 C 322.739 70.880,322.707 71.050,322.709 71.417 M127.250 94.000 C 127.193 94.092,126.959 94.167,126.730 94.167 C 126.495 94.167,126.358 94.094,126.417 94.000 C 126.473 93.908,126.707 93.833,126.936 93.833 C 127.172 93.833,127.308 93.906,127.250 94.000 " stroke="none" fill="#3c6c74" fill-rule="evenodd"></path></g></svg>