<svg id="svg" xmlns="http://www.w3.org/2000/svg" xmlns:xlink="http://www.w3.org/1999/xlink" width="400" height="400" viewBox="0, 0, 400,400"><g id="svgg"><path id="path0" d="M148.333 176.195 C 138.158 181.052,128.558 185.639,127.000 186.387 C 120.120 189.691,119.431 189.963,118.973 189.557 C 118.619 189.243,118.603 189.265,118.891 189.667 C 119.279 190.207,119.647 195.992,119.659 201.750 C 119.666 205.177,120.053 206.399,120.530 204.500 C 120.645 204.042,120.873 203.667,121.036 203.667 C 121.200 203.667,121.333 203.442,121.333 203.167 C 121.333 202.892,121.483 202.667,121.667 202.667 C 121.850 202.667,122.000 202.442,122.000 202.167 C 122.000 201.892,122.150 201.667,122.333 201.667 C 122.517 201.667,122.667 201.442,122.667 201.167 C 122.667 200.892,122.814 200.667,122.994 200.667 C 123.173 200.667,123.415 200.292,123.530 199.833 C 123.645 199.375,123.873 199.000,124.036 199.000 C 124.200 199.000,124.333 198.791,124.333 198.536 C 124.333 198.280,124.558 197.985,124.833 197.879 C 125.108 197.774,125.342 197.495,125.352 197.260 C 125.363 197.026,134.528 190.383,145.719 182.500 C 168.216 166.653,167.232 167.353,167.000 167.358 C 166.908 167.361,158.508 171.337,148.333 176.195 M170.127 168.750 C 168.980 170.697,168.905 170.863,169.489 170.167 C 170.166 169.360,170.750 168.333,170.531 168.333 C 170.444 168.333,170.262 168.521,170.127 168.750 M165.794 175.750 C 164.646 177.697,164.572 177.863,165.156 177.167 C 165.833 176.360,166.417 175.333,166.198 175.333 C 166.111 175.333,165.929 175.521,165.794 175.750 M161.357 182.955 C 161.129 183.382,160.481 183.650,159.297 183.807 C 153.837 184.531,151.665 187.778,151.528 195.425 C 151.492 197.483,151.296 199.146,151.034 199.624 C 150.795 200.058,150.745 200.325,150.921 200.216 C 151.098 200.106,151.489 201.020,151.793 202.250 C 152.887 206.682,155.158 208.744,159.171 208.947 C 161.952 209.087,163.396 208.531,164.279 206.979 C 165.034 205.651,165.333 205.752,165.333 207.333 L 165.333 208.667 167.500 208.667 L 169.667 208.667 169.667 202.333 L 169.667 196.000 164.333 196.000 L 159.000 196.000 159.000 198.167 L 159.000 200.333 161.833 200.333 L 164.667 200.333 164.667 201.288 C 164.667 204.561,159.286 205.739,157.267 202.908 C 156.288 201.536,156.080 189.598,157.045 190.195 C 157.177 190.276,157.374 190.065,157.482 189.725 C 157.963 188.207,161.653 187.697,163.298 188.921 C 164.140 189.549,164.440 190.169,164.827 192.083 C 165.009 192.980,165.064 193.000,167.386 193.000 L 169.760 193.000 169.575 191.209 C 169.166 187.249,165.713 183.701,162.238 183.674 C 161.414 183.667,161.350 183.592,161.667 183.000 C 161.863 182.633,161.948 182.333,161.857 182.333 C 161.765 182.333,161.540 182.613,161.357 182.955 M215.224 183.348 C 214.161 184.184,213.767 185.967,214.341 187.352 C 215.715 190.668,220.818 189.602,220.818 186.000 C 220.818 183.244,217.410 181.628,215.224 183.348 M249.330 188.917 L 249.326 193.833 248.467 192.743 C 243.819 186.846,234.915 192.721,235.792 201.107 C 236.547 208.332,244.470 211.996,248.441 206.957 L 249.326 205.833 249.330 207.250 L 249.333 208.667 251.667 208.667 L 254.000 208.667 254.000 196.333 L 254.000 184.000 251.667 184.000 L 249.333 184.000 249.330 188.917 M183.614 191.340 C 177.764 194.431,177.893 205.682,183.810 208.369 C 186.672 209.669,190.269 208.968,191.664 206.840 L 192.314 205.846 192.692 206.930 C 193.185 208.343,193.859 208.667,196.311 208.667 L 198.333 208.667 198.333 206.500 C 198.333 204.600,198.256 204.333,197.706 204.333 C 196.791 204.333,196.676 203.510,196.671 196.917 L 196.667 191.000 194.333 191.000 L 192.000 191.000 191.998 192.083 L 191.997 193.167 191.248 192.261 C 189.834 190.548,185.990 190.085,183.614 191.340 M269.530 191.191 C 261.994 193.952,262.075 205.822,269.648 208.493 C 275.970 210.724,282.085 206.571,282.140 200.008 C 282.197 193.197,275.959 188.836,269.530 191.191 M209.667 193.167 L 209.667 195.333 212.333 195.333 L 215.000 195.333 215.000 199.833 L 215.000 204.333 212.167 204.333 L 209.333 204.333 209.333 206.500 L 209.333 208.667 217.183 208.667 L 225.032 208.667 224.933 206.583 L 224.833 204.500 222.250 204.403 L 219.667 204.305 219.667 197.653 L 219.667 191.000 214.667 191.000 L 209.667 191.000 209.667 193.167 M189.822 195.474 C 193.798 197.135,192.287 204.667,187.978 204.667 C 185.670 204.667,184.000 202.638,184.000 199.833 C 184.000 196.108,186.628 194.139,189.822 195.474 M246.837 195.480 C 251.216 197.310,249.593 204.667,244.811 204.667 C 242.185 204.667,240.517 202.789,240.517 199.833 C 240.517 196.012,243.384 194.037,246.837 195.480 M275.232 195.652 C 279.739 198.400,277.242 205.474,272.105 204.510 C 267.922 203.726,267.222 197.179,271.138 195.474 C 272.597 194.839,273.998 194.900,275.232 195.652 M133.293 206.615 C 133.851 207.321,134.572 208.108,134.895 208.365 C 135.218 208.623,134.825 208.046,134.022 207.083 C 132.338 205.065,131.782 204.708,133.293 206.615 M28.329 207.595 C 0.346 221.466,36.347 231.987,81.002 222.988 C 88.051 221.567,102.419 217.308,101.903 216.792 C 101.835 216.724,100.669 217.046,99.313 217.507 C 75.840 225.491,37.571 226.264,26.570 218.977 C 21.999 215.949,23.567 211.057,30.333 207.234 C 33.419 205.491,32.090 205.730,28.329 207.595 M137.333 211.333 C 138.286 212.433,139.141 213.333,139.233 213.333 C 139.324 213.333,138.620 212.433,137.667 211.333 C 136.714 210.233,135.859 209.333,135.767 209.333 C 135.676 209.333,136.380 210.233,137.333 211.333 M141.987 214.187 L 141.253 215.375 140.377 214.604 L 139.500 213.833 140.304 214.746 C 141.192 215.753,141.478 215.656,142.436 214.026 C 143.276 212.595,142.884 212.736,141.987 214.187 " stroke="none" fill="#74dcd4" fill-rule="evenodd"></path><path id="path1" d="M77.722 155.700 C 60.113 159.397,47.111 171.061,41.904 187.833 C 38.599 198.478,39.703 212.167,44.621 221.526 L 45.833 223.833 48.667 224.075 C 51.346 224.304,54.832 224.242,63.667 223.806 C 74.620 223.265,91.394 220.268,99.805 217.349 C 100.889 216.973,101.832 216.721,101.901 216.790 C 101.970 216.859,100.033 217.608,97.597 218.453 C 84.273 223.079,70.215 225.519,52.543 226.274 L 47.253 226.500 49.575 229.500 C 61.524 244.937,81.511 251.161,100.333 245.305 C 101.525 244.934,102.760 244.489,103.079 244.315 C 103.397 244.142,103.851 244.000,104.087 244.000 C 104.693 244.000,111.759 239.867,113.982 238.212 C 123.349 231.239,129.865 220.736,131.836 209.430 C 132.540 205.397,132.576 205.535,129.964 202.458 C 127.121 199.109,127.969 199.098,123.603 202.535 C 121.599 204.113,119.914 205.350,119.858 205.285 C 119.802 205.220,119.658 201.803,119.538 197.693 C 119.389 192.596,119.190 190.051,118.911 189.693 C 118.453 189.105,110.910 180.233,109.921 179.121 L 109.288 178.409 114.561 177.173 C 117.461 176.493,120.856 175.686,122.106 175.379 L 124.379 174.822 123.142 173.161 C 113.056 159.615,93.990 152.285,77.722 155.700 " stroke="none" fill="#3c6c74" fill-rule="evenodd"></path><path id="path2" d="M165.500 165.317 C 155.095 167.798,109.797 178.333,109.537 178.333 C 109.409 178.333,111.562 180.952,114.321 184.152 L 119.337 189.971 121.418 189.022 C 122.563 188.501,125.525 187.102,128.000 185.913 C 153.429 173.704,167.455 167.106,166.617 167.746 C 166.315 167.978,156.911 174.617,145.719 182.500 C 134.528 190.383,125.363 196.925,125.352 197.037 C 125.342 197.149,124.312 198.799,123.063 200.704 C 121.814 202.608,120.658 204.392,120.492 204.667 C 120.327 204.942,120.850 204.642,121.655 204.000 C 125.282 201.107,127.184 199.672,127.395 199.670 C 127.520 199.668,130.649 203.192,134.347 207.500 C 138.046 211.808,141.123 215.333,141.185 215.333 C 141.273 215.333,149.995 201.386,151.190 199.333 C 151.350 199.058,151.505 197.299,151.535 195.425 C 151.657 187.799,153.835 184.531,159.278 183.809 L 160.987 183.583 166.057 175.375 C 168.846 170.860,171.629 166.379,172.241 165.417 C 173.608 163.267,174.070 163.274,165.500 165.317 " stroke="none" fill="#a2f3d4" fill-rule="evenodd"></path></g></svg>